<svg width="365" height="658" viewBox="0 0 365 658" fill="none" xmlns="http://www.w3.org/2000/svg">
<g style="mix-blend-mode:multiply">
<path d="M387.327 403.682C387.327 403.682 388.153 403.014 389.697 401.734C390.49 401.11 391.45 400.305 392.456 399.3C393.5 398.289 394.721 397.174 395.891 395.717C398.416 393.008 400.975 389.247 403.62 384.775C406.222 380.271 408.659 374.938 410.68 368.891C411.723 365.825 412.911 362.697 413.719 359.356C414.646 356.035 415.599 352.633 416.286 348.999C417.098 345.424 417.854 341.741 418.513 337.918C419.29 334.116 419.753 330.283 420.302 326.244C422.486 310.281 424.818 293.249 427.112 276.223C428.253 267.672 429.249 259.182 430.489 250.771C431.821 242.463 433.342 234.126 435.24 226.237C437.175 218.341 439.356 210.797 441.919 203.738C443.201 200.209 444.668 196.884 445.952 193.626C447.36 190.426 448.905 187.362 450.272 184.401C453.268 178.673 456.414 173.427 459.401 169.175C462.419 164.879 465.292 161.148 467.849 158.396C470.308 155.504 472.471 153.47 473.922 152.088C475.374 150.705 476.15 149.967 476.15 149.967L476.515 150.339C476.515 150.339 475.831 151.179 474.597 152.723C473.369 154.305 471.423 156.499 469.301 159.574C467.091 162.584 464.645 166.328 461.957 170.768C459.243 175.289 456.82 180.465 454.062 186.234C452.845 189.172 451.489 192.208 450.232 195.385C449.099 198.62 447.821 201.917 446.728 205.418C444.618 212.408 442.327 219.736 440.606 227.521C438.611 235.27 437.044 243.304 435.404 251.62C433.953 259.907 432.687 268.399 431.302 276.871C428.575 293.846 425.881 310.777 423.34 326.677C422.699 330.614 422.107 334.621 421.248 338.397C420.515 342.232 419.645 345.932 418.72 349.524C417.877 353.142 416.816 356.6 415.776 359.938C414.822 363.34 413.553 366.441 412.424 369.443C410.176 375.523 407.512 380.891 404.754 385.38C401.909 389.805 399.193 393.551 396.549 396.238C395.336 397.663 394.039 398.79 392.951 399.768C391.907 400.779 390.904 401.551 390.105 402.137C388.512 403.348 387.648 404.021 387.648 404.021L387.327 403.682Z" fill="url(#paint0_linear_1_133)"/>
<path d="M371.661 407.096C371.661 407.096 372.526 406.385 374.121 405.097C374.96 404.467 375.921 403.624 376.969 402.575C378.06 401.557 379.324 400.398 380.581 398.929C383.23 396.126 386.009 392.374 388.82 387.803C391.636 383.27 394.316 377.827 396.69 371.655C399.071 365.521 401.152 358.696 402.958 351.332C403.845 347.671 404.752 343.891 405.561 339.971C406.387 336.164 406.971 332.046 407.68 327.985C409.094 319.827 410.5 311.36 411.971 302.806C413.441 294.251 414.725 285.493 416.129 276.754C417.539 268.054 418.653 259.205 420.325 250.697C421.91 242.126 423.784 233.666 425.911 225.593C427.094 221.578 428.125 217.586 429.456 213.78C430.1 211.862 430.712 209.987 431.324 208.112C431.979 206.269 432.754 204.446 433.459 202.674C434.819 199.058 436.328 195.652 437.897 192.392C439.341 189.074 440.977 185.998 442.587 183.003C443.414 181.522 444.056 180.107 444.959 178.615C445.808 177.285 446.658 175.955 447.437 174.675C448.254 173.389 449.039 172.147 449.792 170.948C450.664 169.77 451.466 168.641 452.268 167.512C453.922 165.325 455.309 163.178 456.868 161.392C458.426 159.607 459.856 157.996 461.112 156.527C463.663 153.584 466.003 151.565 467.456 150.105C468.952 148.678 469.767 147.896 469.767 147.896L470.134 148.267C470.134 148.267 469.444 149.108 468.135 150.739C466.907 152.397 464.742 154.546 462.541 157.746C460.334 160.908 457.512 164.628 454.815 169.182C454.127 170.293 453.407 171.449 452.654 172.647C451.989 173.91 451.292 175.217 450.556 176.53C449.827 177.88 449.097 179.23 448.373 180.618C447.713 181.919 447.012 183.459 446.294 184.885C444.875 187.851 443.391 190.904 442.099 194.2C440.725 197.469 439.369 200.851 438.193 204.401C435.64 211.452 433.324 219.049 431.175 226.969C428.949 234.901 427.003 243.14 425.167 251.594C423.223 260.104 421.89 268.793 420.208 277.495C418.603 286.186 417.155 294.892 415.489 303.437C413.822 311.983 412.209 320.365 410.6 328.514C409.104 336.646 407.384 344.579 405.263 351.914C403.224 359.275 400.876 366.14 398.305 372.303C395.735 378.466 392.821 383.905 389.847 388.423C386.835 392.947 383.898 396.684 381.123 399.429C379.823 400.865 378.482 402.036 377.347 403.022C376.224 404.082 375.251 404.849 374.412 405.48C372.773 406.735 371.865 407.415 371.865 407.415L371.661 407.096Z" fill="url(#paint1_linear_1_133)"/>
<path d="M355.978 410.396C355.978 410.396 356.836 409.645 358.451 408.237C359.239 407.535 360.233 406.647 361.399 405.617C361.982 405.102 362.598 404.543 363.251 403.978C363.855 403.343 364.442 402.594 365.11 401.872C366.398 400.357 367.82 398.706 369.377 396.917C370.798 394.994 372.178 392.805 373.699 390.517C375.345 388.288 376.531 385.585 378.026 382.873C379.566 380.194 380.782 377.176 382.101 374.064C384.776 367.834 387.021 360.816 389.154 353.309C390.185 349.58 391.181 345.624 392.108 341.717C392.897 337.675 393.757 333.584 394.562 329.385C396.253 321.013 397.98 312.363 399.722 303.556C401.306 294.734 402.867 285.76 404.472 276.819C405.236 272.354 406.033 267.845 406.798 263.38C407.72 258.93 408.642 254.48 409.532 250.073C411.122 241.289 413.752 232.698 415.834 224.344C416.998 220.207 418.577 216.24 419.889 212.314C421.321 208.408 422.443 204.511 424.117 200.918C425.791 197.326 427.443 193.853 428.994 190.473C430.556 187.169 432.051 183.681 433.833 180.81C435.566 177.869 437.159 175.026 438.9 172.394C440.723 169.789 442.454 167.353 444.089 165.048C447.364 160.475 450.713 156.902 453.276 153.796C458.946 148.086 462.249 144.986 462.249 144.986L462.616 145.357C462.616 145.357 459.724 148.862 454.705 155.018C453.586 156.624 452.307 158.448 450.93 160.403C449.592 162.353 447.949 164.349 446.603 166.765C445.208 169.112 443.678 171.596 442.089 174.204C440.587 176.878 439.176 179.887 437.524 182.855C435.797 185.834 434.68 188.993 433.173 192.405C431.775 195.762 430.318 199.244 428.796 202.814C427.312 206.378 426.304 210.258 424.899 214.082C423.657 217.959 422.143 221.838 421.049 225.926C418.862 234.101 416.224 242.383 414.325 251.175C413.309 255.523 412.262 259.914 411.252 264.3C410.368 268.744 409.445 273.194 408.529 277.682C406.728 286.614 404.965 295.541 403.185 304.354C401.242 313.114 399.314 321.716 397.459 330.035C396.535 334.213 395.599 338.316 394.722 342.293C393.666 346.375 392.571 350.191 391.431 353.975C389.065 361.478 386.592 368.531 383.683 374.757C382.25 377.886 380.92 380.922 379.299 383.574C377.683 386.265 376.421 388.98 374.693 391.182C373.053 393.45 371.596 395.65 370.094 397.547C368.461 399.347 366.957 400.972 365.593 402.498C364.925 403.22 364.3 403.975 363.653 404.578C362.961 405.148 362.34 405.669 361.757 406.184C360.585 407.177 359.548 408.032 358.716 408.702C357.057 410.078 356.193 410.791 356.193 410.791L355.978 410.396Z" fill="url(#paint2_linear_1_133)"/>
<path d="M341.273 413.474C341.273 413.474 342.158 412.681 343.757 411.239C344.572 410.496 345.597 409.605 346.756 408.578C347.335 408.064 347.984 407.501 348.66 406.857C349.254 406.186 349.881 405.472 350.534 404.676C351.851 403.16 353.334 401.464 354.913 399.637C356.312 397.644 357.84 395.476 359.42 393.145C362.451 388.387 365.507 382.773 368.335 376.419C369.833 373.287 370.971 369.822 372.38 366.355C373.621 362.797 374.845 359.125 376.007 355.308C378.333 347.673 380.265 339.478 382.378 330.946C384.377 322.431 386.136 313.603 387.992 304.645C389.76 295.622 391.543 286.442 393.37 277.294C395.072 268.087 397.207 258.932 399.181 249.994C400.203 245.501 401.463 241.049 402.622 236.69C403.812 232.287 404.857 227.945 406.352 223.768C409.229 215.43 411.782 207.257 415.359 199.976C417.036 196.236 418.553 192.714 420.258 189.163C422.079 185.867 423.836 182.657 425.497 179.578C427.039 176.478 429.172 173.716 430.928 171.01C432.808 168.363 434.343 165.729 436.167 163.478C439.827 159.051 442.815 155.036 445.699 152.121C451.503 146.286 454.882 143.064 454.882 143.064L455.247 143.435C455.247 143.435 452.309 147.016 447.119 153.34C445.759 154.824 444.63 156.815 443.192 158.814C441.793 160.808 440.265 162.975 438.641 165.274C437.017 167.572 435.683 170.253 434.04 172.942C432.523 175.689 430.692 178.407 429.205 181.614C427.631 184.757 425.999 188.026 424.341 191.375C422.941 194.647 421.496 198.391 420.035 202.021C419.31 203.874 418.547 205.732 417.79 207.629C416.989 209.493 416.194 211.395 415.611 213.421C414.314 217.374 412.953 221.415 411.604 225.532C410.092 229.596 408.96 233.873 407.752 238.162C406.588 242.484 405.224 246.758 404.082 251.23C401.881 260.202 399.523 269.159 397.577 278.286C395.594 287.419 393.605 296.514 391.636 305.489C389.592 314.476 387.612 323.376 385.412 331.844C383.087 340.253 381.053 348.541 378.457 356.178C377.138 359.98 375.801 363.669 374.447 367.244C372.925 370.728 371.667 374.172 370.055 377.321C367.038 383.704 363.782 389.271 360.557 394.02C358.858 396.33 357.249 398.471 355.811 400.47C354.119 402.314 352.592 403.978 351.194 405.467C350.498 406.231 349.834 406.951 349.196 407.59C348.514 408.196 347.859 408.721 347.242 409.241C346.046 410.274 345.015 411.127 344.156 411.837C342.476 413.253 341.585 414.008 341.585 414.008L341.273 413.474Z" fill="url(#paint3_linear_1_133)"/>
<path d="M325.624 417.003C325.624 417.003 326.511 416.211 328.182 414.722C329.766 413.168 332.527 411.205 335.175 407.983C336.526 406.426 338.131 404.753 339.696 402.815C341.168 400.776 342.769 398.563 344.466 396.219C346.076 393.81 347.559 391.073 349.269 388.302C350.897 385.504 352.28 382.357 353.927 379.17C355.411 375.93 356.824 372.469 358.3 368.922C359.571 365.289 361.062 361.584 362.287 357.649C364.911 349.906 366.966 341.477 369.453 332.827C371.582 324.116 373.79 315.161 375.763 305.931C377.774 296.696 379.844 287.337 381.876 277.983C383.972 268.541 386.135 259.284 388.466 250.116C390.954 240.964 393.34 231.905 396.385 223.364C399.148 214.751 402.613 206.688 406.033 199.096C406.943 197.18 407.557 195.348 408.624 193.447C409.557 191.682 410.496 189.955 411.435 188.228C413.324 184.85 414.905 181.48 416.878 178.398C418.894 175.349 420.814 172.43 422.637 169.641C423.552 168.266 424.429 166.897 425.36 165.635C426.336 164.405 427.279 163.219 428.227 162.07C431.996 157.557 434.912 153.29 438.082 150.453C444.069 144.484 447.512 141.142 447.512 141.142L447.877 141.512C447.877 141.512 444.838 145.219 439.504 151.669C438.85 152.463 438.126 153.307 437.408 154.189C436.739 155.14 436.076 156.13 435.343 157.168C433.914 159.24 432.351 161.448 430.698 163.824C429.868 164.993 429.012 166.243 428.118 167.5C427.312 168.82 426.554 170.21 425.753 171.568C424.124 174.366 422.437 177.288 420.654 180.341C418.87 183.394 417.382 186.867 415.618 190.303C414.76 192.057 413.903 193.81 413.013 195.607C412.176 197.241 411.516 199.274 410.746 201.092C409.271 204.91 407.689 208.783 406.036 212.706C404.308 216.639 403.167 220.871 401.674 225.079C398.563 233.436 396.073 242.318 393.367 251.31C390.824 260.354 388.364 269.696 386.077 278.895C383.844 288.202 381.574 297.515 379.362 306.703C377.188 315.885 374.759 324.912 372.435 333.614C369.78 342.173 367.573 350.626 364.685 358.408C363.379 362.317 361.736 366.045 360.346 369.657C358.756 373.222 357.224 376.662 355.664 379.913C353.936 383.074 352.44 386.238 350.692 389.015C348.907 391.798 347.342 394.509 345.613 396.896C343.835 399.214 342.153 401.401 340.605 403.452C338.959 405.363 337.278 407.047 335.845 408.578C333.078 411.779 330.3 413.629 328.673 415.151C326.958 416.608 326.028 417.367 326.028 417.367L325.624 417.003Z" fill="url(#paint4_linear_1_133)"/>
<path d="M310.09 421.291C310.09 421.291 311.011 420.453 312.718 418.913C314.376 417.304 317.132 415.257 319.888 411.928C321.269 410.283 322.997 408.624 324.548 406.565C326.094 404.468 327.774 402.233 329.545 399.83C331.141 397.298 332.828 394.597 334.606 391.727C336.221 388.803 337.839 385.647 339.554 382.359C342.657 375.677 345.815 368.326 348.522 360.306C349.977 356.32 351.218 352.21 352.507 347.899C353.802 343.626 355.161 339.266 356.433 334.841C358.769 325.906 361.261 316.714 363.436 307.221C365.693 297.755 368.002 288.125 370.311 278.495C372.772 268.842 374.936 259.273 377.708 249.884C379.091 245.17 380.241 240.453 381.767 235.912C383.293 231.371 384.825 226.868 386.292 222.453C387.715 218.005 389.645 213.83 391.342 209.652C393.121 205.5 394.607 201.47 396.648 197.511C400.716 190.024 403.999 182.732 408.294 176.492C410.341 173.348 412.285 170.297 414.139 167.415C416.08 164.598 418.236 162.176 420.083 159.761C421.973 157.379 423.735 155.171 425.362 153.1C426.901 150.965 428.848 149.467 430.31 147.848C436.44 141.681 439.992 138.232 439.992 138.232L440.359 138.604C440.359 138.604 437.21 142.419 431.736 149.07C428.843 152.264 425.976 156.658 422.566 161.561C420.926 164.061 418.977 166.569 417.237 169.433C415.578 172.324 413.829 175.384 412.021 178.57C408.094 184.677 405.003 192.211 401.261 199.805C399.565 203.478 398.108 207.698 396.388 211.725C394.761 215.854 392.895 219.941 391.548 224.378C390.031 228.723 388.445 233.118 386.907 237.583C385.376 242.086 384.051 246.674 382.613 251.279C379.654 260.463 377.193 270.116 374.508 279.57C372.035 289.147 369.519 298.691 367.062 308.111C364.686 317.557 361.966 326.782 359.44 335.746C358.093 340.183 356.608 344.484 355.232 348.731C353.888 352.933 352.512 357.18 350.938 361.146C347.997 369.162 344.568 376.514 341.269 383.187C339.473 386.448 337.735 389.584 336.006 392.525C334.147 395.369 332.34 398.049 330.706 400.587C328.854 402.964 327.098 405.209 325.471 407.28C323.838 409.313 322.034 410.983 320.572 412.602C317.696 415.91 314.885 417.848 313.184 419.426C311.433 420.933 310.468 421.738 310.468 421.738L310.09 421.291Z" fill="url(#paint5_linear_1_133)"/>
<path d="M294.556 425.58C294.556 425.58 295.519 424.735 297.259 423.113C298.993 421.453 301.78 419.284 304.617 415.904C306.073 414.208 307.846 412.542 309.43 410.399C311.051 408.251 312.77 405.971 314.618 403.517C316.291 400.934 318.05 398.143 319.911 395.26C321.553 392.215 323.418 389.097 325.123 385.694C328.456 378.897 331.877 371.389 334.808 363.216C336.415 359.166 337.64 354.902 339.163 350.555C340.529 346.192 342.199 341.783 343.415 337.21C346.051 328.111 348.755 318.69 351.217 308.956C353.723 299.255 356.287 289.428 358.852 279.601C361.455 269.769 364.101 259.968 367.005 250.323C367.732 247.922 368.421 245.526 369.11 243.13C369.919 240.754 370.696 238.423 371.511 236.086C373.147 231.449 374.58 226.765 376.321 222.307C380.014 213.514 383.349 204.659 387.361 196.945C391.388 189.072 395.501 181.77 399.665 175.314C401.746 172.087 403.731 168.99 405.876 166.18C407.939 163.344 409.867 160.644 411.878 158.243C415.727 153.311 419.447 149.331 422.491 146.036C425.629 142.843 428.185 140.437 429.919 138.777C431.703 137.187 432.622 136.31 432.622 136.31L432.989 136.682C432.989 136.682 432.158 137.623 430.561 139.418C429.051 141.278 426.714 143.845 423.883 147.263C421.183 150.779 417.808 154.978 414.331 160.048C410.766 165.054 407.104 170.967 403.263 177.491C399.421 184.014 395.65 191.265 392.003 199.08C388.303 207.058 385.053 215.434 381.517 224.242C379.765 228.624 378.238 233.206 376.597 237.804C375.776 240.104 374.956 242.403 374.103 244.746C373.326 247.077 372.593 249.441 371.822 251.811C368.694 261.256 365.802 270.977 362.959 280.768C360.193 290.548 357.464 300.322 354.751 309.938C352.082 319.586 349.188 329.036 346.362 338.164C345.036 342.792 343.273 347.098 341.832 351.473C340.259 355.75 338.931 360.107 337.166 364.142C334.001 372.311 330.346 379.816 326.817 386.603C324.992 389.986 323.051 393.115 321.327 396.133C319.352 399.034 317.506 401.76 315.757 404.355C313.827 406.783 311.994 409.08 310.328 411.196C308.663 413.312 306.814 414.989 305.314 416.653C302.319 420.019 299.515 422.073 297.737 423.701C295.947 425.253 294.985 426.098 294.985 426.098L294.556 425.58Z" fill="url(#paint6_linear_1_133)"/>
<path d="M279.045 430.021C279.045 430.021 280 429.139 281.807 427.467C283.577 425.801 286.379 423.513 289.313 420.039C292.471 416.765 295.854 412.407 299.596 407.335C301.33 404.664 303.248 401.926 305.083 398.89C306.792 395.795 308.805 392.655 310.526 389.131C314.107 382.218 317.611 374.539 320.822 366.205C322.457 362.111 323.884 357.66 325.474 353.262C327.058 348.826 328.707 344.303 330.061 339.63C331.497 334.983 332.959 330.255 334.41 325.451C335.779 320.62 337.175 315.707 338.57 310.795C341.312 300.899 344.107 290.841 346.94 280.776C349.697 270.723 352.731 260.706 355.75 250.846C357.26 245.917 359.021 241.104 360.629 236.315C361.474 233.934 362.281 231.558 363.089 229.182C364.021 226.866 364.916 224.555 365.854 222.276C367.769 217.712 369.473 213.297 371.519 208.831C373.561 204.598 375.577 200.446 377.577 196.453C379.452 192.4 381.797 188.627 383.963 184.958C386.13 181.289 388.237 177.746 390.248 174.334C394.788 167.859 399.078 162.043 402.929 156.915C407.172 152.078 410.862 147.946 413.965 144.563C416.937 141.084 419.777 138.79 421.502 137.092C423.309 135.42 424.264 134.538 424.264 134.538L424.631 134.91C424.631 134.91 423.77 135.895 422.181 137.728C420.648 139.669 418.021 142.086 415.355 145.791C412.601 149.432 409.256 153.784 405.345 158.765C401.909 164.064 398.071 170.044 393.846 176.55C391.988 179.939 390.076 183.492 388.062 187.137C386.047 190.783 383.93 194.522 382.186 198.671C380.355 202.756 378.383 206.94 376.379 211.167C374.553 215.289 372.834 219.862 371.022 224.332C370.078 226.573 369.177 228.846 368.201 231.131C367.35 233.474 366.494 235.78 365.648 238.161C363.99 242.88 362.099 247.595 360.502 252.461C357.264 262.159 354.011 272.015 351.014 282.026C348.012 292 345.016 302.011 342.111 311.854C340.601 316.783 339.124 321.669 337.673 326.474C336.102 331.257 334.526 336.003 333.02 340.699C331.552 345.389 329.821 349.886 328.155 354.295C326.451 358.71 325.002 363.009 323.188 367.208C319.743 375.538 316.006 383.213 312.224 390.079C310.42 393.577 308.288 396.697 306.459 399.77C304.505 402.785 302.505 405.497 300.689 408.141C296.79 413.198 293.243 417.503 289.959 420.719C286.9 424.134 284.048 426.352 282.235 427.985C280.379 429.587 279.424 430.469 279.424 430.469L279.045 430.021Z" fill="url(#paint7_linear_1_133)"/>
<path d="M264.506 434.2C264.506 434.2 265.486 433.274 267.319 431.599C269.108 429.891 271.912 427.486 274.933 423.96C278.134 420.601 281.633 416.148 285.439 410.911C289.114 405.576 293.052 399.425 296.777 392.373C300.589 385.386 304.1 377.434 307.581 369.02C310.693 360.468 314.465 351.427 317.359 341.936C320.571 332.514 323.477 322.593 326.473 312.504C329.431 302.421 332.436 292.136 335.447 281.889C338.42 271.647 341.663 261.404 344.897 251.357C346.615 246.357 348.337 241.394 350.034 236.514C351.768 231.628 353.758 226.898 355.602 222.228C356.559 219.869 357.522 217.548 358.485 215.226C359.541 213.007 360.558 210.794 361.62 208.613C363.704 204.257 365.606 199.968 367.812 195.904C370.099 191.867 372.366 187.95 374.494 184.132C375.601 182.255 376.589 180.357 377.707 178.556C378.875 176.825 380.043 175.095 381.147 173.451C383.424 170.115 385.611 166.949 387.702 163.913C389.712 160.851 392.191 158.339 394.194 155.744C398.391 150.797 401.855 146.116 405.367 143.022C412.029 136.498 415.87 132.771 415.87 132.771L416.273 133.137C416.273 133.137 412.829 137.193 406.761 144.327C405.215 146.114 403.568 147.995 401.99 150.332C400.324 152.604 398.568 155.045 396.641 157.629C394.801 160.277 392.571 162.906 390.724 166.022C388.833 169.105 386.815 172.363 384.738 175.746C383.677 177.422 382.623 179.135 381.498 180.898C380.455 182.688 379.543 184.574 378.549 186.434C376.567 190.192 374.495 194.118 372.396 198.127C370.39 202.238 368.538 206.597 366.491 210.948C365.467 213.123 364.45 215.336 363.438 217.587C362.539 219.821 361.646 222.093 360.715 224.371C358.865 229.003 356.82 233.625 355.037 238.44C353.253 243.256 351.475 248.11 349.671 253.045C346.22 262.931 342.759 273.013 339.548 283.213C336.337 293.412 333.163 303.606 330.005 313.642C326.809 323.684 323.703 333.557 320.269 343.051C318.669 347.801 316.981 352.485 315.14 356.921C313.348 361.427 311.615 365.808 309.902 370.069C306.151 378.485 302.439 386.389 298.395 393.373C294.476 400.415 290.375 406.513 286.5 411.8C282.532 416.984 278.908 421.378 275.582 424.678C272.442 428.183 269.583 430.48 267.75 432.155C265.874 433.799 264.888 434.686 264.888 434.686L264.506 434.2Z" fill="url(#paint8_linear_1_133)"/>
<path d="M248.995 438.642C248.995 438.642 249.977 437.717 251.839 435.96C253.701 434.203 256.53 431.679 259.621 428.066C262.891 424.621 266.498 420.076 270.407 414.709C274.228 409.277 278.345 402.985 282.173 395.805C286.164 388.678 289.893 380.58 293.553 372.027C296.945 363.242 300.821 354.074 304.001 344.389C307.462 334.778 310.53 324.606 313.818 314.361C316.943 304.063 320.229 293.547 323.571 283.138C325.219 277.918 326.868 272.698 328.517 267.478C329.322 264.871 330.171 262.296 330.977 259.688C331.826 257.113 332.837 254.591 333.768 252.043C337.571 241.876 341.327 231.91 344.933 222.238C347.023 217.379 349.22 212.969 351.28 208.425C352.338 206.207 353.314 203.962 354.421 201.814C355.609 199.693 356.759 197.577 357.916 195.5C360.266 191.339 362.395 187.25 364.721 183.442C367.134 179.699 369.489 176.081 371.747 172.595C372.879 170.87 373.974 169.151 375.079 167.509C376.229 165.898 377.476 164.428 378.599 162.899C380.938 159.944 383.143 157.126 385.219 154.482C386.257 153.16 387.263 151.882 388.237 150.647C389.298 149.477 390.29 148.357 391.286 147.274C393.248 145.153 395.044 143.212 396.673 141.451C400.025 138.032 402.843 135.432 404.667 133.681C406.529 131.924 407.549 130.993 407.549 130.993L407.914 131.365C407.914 131.365 407.025 132.393 405.343 134.317C403.704 136.273 401.137 138.991 398.095 142.673C396.602 144.569 394.981 146.639 393.193 148.889C392.278 149.999 391.368 151.146 390.394 152.38C389.501 153.641 388.582 154.984 387.663 156.327C385.756 159.062 383.751 161.927 381.625 165.006C380.583 166.561 379.417 168.058 378.43 169.722C377.444 171.385 376.387 173.098 375.336 174.849C373.235 178.351 371.037 181.984 368.781 185.742C366.655 189.598 364.678 193.663 362.517 197.796C361.436 199.862 360.361 201.966 359.287 204.07C358.218 206.213 357.247 208.495 356.227 210.708C354.231 215.165 351.999 219.851 350.058 224.417C346.309 233.915 342.455 243.741 338.504 253.697C337.53 256.213 336.469 258.665 335.539 261.213L332.916 268.95C331.142 274.111 329.375 279.311 327.601 284.472C324.059 294.833 320.631 305.176 317.273 315.471C313.79 325.706 310.554 335.788 306.866 345.433C303.465 355.189 299.458 364.261 295.859 372.96C291.903 381.597 288.006 389.604 283.782 396.727C279.722 403.904 275.442 410.143 271.458 415.521C267.386 420.835 263.654 425.321 260.259 428.708C257.006 432.267 254.165 434.715 252.26 436.44C250.354 438.165 249.328 439.057 249.328 439.057L248.995 438.642Z" fill="url(#paint9_linear_1_133)"/>
<path d="M233.467 442.971C233.467 442.971 234.484 442.006 236.382 440.211C238.28 438.417 241.142 435.819 244.342 432.127C246.007 430.329 247.839 428.351 249.62 426.033C251.438 423.709 253.521 421.345 255.417 418.507C257.356 415.701 259.517 412.823 261.502 409.546C263.573 406.333 265.654 402.926 267.657 399.259C271.794 392.023 275.788 383.841 279.578 375.071C281.423 370.617 283.333 366.075 285.263 361.414C287.232 356.748 288.863 351.9 290.721 347.018C292.579 342.136 294.339 337.114 296.006 331.991C297.717 326.899 299.535 321.752 301.223 316.51C304.68 306.05 308.189 295.428 311.699 284.806C315.247 274.179 318.556 263.51 322.658 253.223C324.628 248.054 326.566 242.928 328.509 237.84C329.481 235.296 330.459 232.79 331.398 230.289C331.903 229.014 332.306 227.832 332.88 226.508L334.505 222.899C336.732 218.154 338.89 213.459 341.027 208.883C343.365 204.354 345.763 199.971 348.103 195.712C350.318 191.395 352.855 187.416 355.295 183.568C357.736 179.719 359.992 175.937 362.371 172.446C364.879 169.051 367.292 165.787 369.576 162.697C371.865 159.645 374.035 156.572 376.372 154.092C380.91 148.999 384.579 144.308 388.215 140.937C395.28 134.109 399.34 130.209 399.34 130.209L399.705 130.579C399.705 130.579 396.044 134.805 389.638 142.152C387.967 143.913 386.364 146.127 384.59 148.483C382.771 150.806 380.83 153.342 378.76 156.052C374.597 161.32 370.727 168.014 365.942 174.807C363.721 178.313 361.627 182.148 359.344 186.011C357.061 189.875 354.681 193.869 352.655 198.157C350.505 202.387 348.258 206.748 345.985 211.19C343.891 215.798 341.771 220.487 339.587 225.264L337.919 228.841C337.424 229.921 336.925 231.234 336.446 232.427C335.463 234.896 334.48 237.364 333.465 239.876C331.466 244.856 329.436 249.88 327.379 254.986C323.09 265.068 319.505 275.701 315.707 286.212C311.991 296.749 308.318 307.318 304.693 317.687C302.924 322.904 301.024 328.024 299.2 333.133C297.414 338.236 295.572 343.231 293.6 348.13C291.628 353.029 289.927 357.926 287.872 362.528C285.816 367.131 283.831 371.684 281.898 376.074C277.844 384.884 273.643 392.981 269.311 400.208C267.227 403.848 265.032 407.273 262.873 410.421C260.807 413.672 258.565 416.524 256.544 419.304C254.567 422.115 252.402 424.453 250.503 426.75C248.646 429.08 246.733 431.031 245.024 432.797C241.699 436.431 238.788 438.959 236.846 440.721C234.904 442.484 233.882 443.411 233.882 443.411L233.467 442.971Z" fill="url(#paint10_linear_1_133)"/>
<path d="M218.128 448.551C218.128 448.551 219.179 447.54 221.114 445.696C223.087 443.847 225.939 441.129 229.249 437.333C230.95 435.487 232.813 433.422 234.63 431.053C236.523 428.673 238.632 426.183 240.608 423.326C242.666 420.494 244.814 417.494 246.874 414.159C249.064 410.92 251.127 407.351 253.243 403.619C257.48 396.193 261.776 387.866 265.659 378.865C267.617 374.343 269.634 369.695 271.709 364.922C273.583 360.102 275.483 355.2 277.448 350.211C279.457 345.255 281.198 340.067 283.053 334.862C284.908 329.657 286.789 324.371 288.583 319.02C292.252 308.345 296.007 297.463 299.724 286.586C301.582 281.148 303.44 275.71 305.304 270.31C307.37 264.957 309.397 259.609 311.43 254.3C315.514 243.795 319.335 233.097 323.968 223.401C328.312 213.593 333.349 204.263 338.087 195.52C343.332 187.05 347.878 178.841 353.075 171.852C355.561 168.258 357.897 164.958 360.347 161.641C362.882 158.621 365.249 155.782 367.519 153.074C369.752 150.371 371.861 147.881 373.803 145.572C375.783 143.256 377.908 141.384 379.653 139.57C386.858 132.51 390.981 128.437 390.981 128.437L391.347 128.808C391.347 128.808 387.618 133.171 381.074 140.751C379.46 142.663 377.548 144.657 375.737 147.064C373.931 149.508 371.959 152.132 369.857 154.931C367.756 157.73 365.531 160.742 363.172 163.89C361.063 167.156 358.864 170.59 356.567 174.155C351.686 181.174 347.423 189.457 342.525 197.914C338.222 206.707 333.204 215.647 329.002 225.627C324.212 235.308 320.485 245.604 316.119 256.035C313.993 261.243 311.834 266.493 309.681 271.782C307.698 277.162 305.714 282.541 303.73 287.921C299.806 298.712 295.883 309.503 292.05 320.125C290.174 325.45 288.212 330.71 286.237 335.894C284.263 341.078 282.44 346.239 280.318 351.213C278.277 356.214 276.262 361.132 274.269 365.932C272.106 370.64 270.008 375.261 267.925 379.725C263.776 388.767 259.267 396.97 254.834 404.387C252.599 408.098 250.41 411.608 248.144 414.859C246.003 418.168 243.735 421.147 241.596 423.952C239.544 426.821 237.353 429.285 235.411 431.595C233.518 433.974 231.573 436.013 229.822 437.79C226.425 441.521 223.486 444.175 221.47 445.992C219.491 447.803 218.434 448.777 218.434 448.777L218.128 448.551Z" fill="url(#paint11_linear_1_133)"/>
<path d="M202.749 453.868C202.749 453.868 203.799 452.854 205.757 450.926C207.76 449.031 210.627 446.189 214.002 442.337C214.868 441.39 215.765 440.4 216.727 439.322C217.608 438.218 218.558 437.064 219.503 435.872C221.469 433.477 223.557 430.868 225.594 427.918C226.657 426.476 227.713 424.995 228.834 423.427C229.873 421.832 230.944 420.193 232.048 418.511C234.299 415.179 236.384 411.522 238.648 407.761C242.962 400.114 247.509 391.695 251.507 382.464C253.525 377.846 255.759 373.117 257.818 368.259C259.79 363.337 261.788 358.333 263.851 353.242C267.77 342.974 271.745 332.308 275.561 321.356C279.42 310.436 283.37 299.347 287.282 288.264C291.031 277.128 295.384 266.134 299.569 255.32C301.662 249.913 303.76 244.545 305.827 239.219C308.144 234.012 310.396 228.892 312.654 223.81C314.842 218.777 317.563 213.936 319.905 209.153C321.133 206.752 322.329 204.395 323.53 202.077C324.813 199.785 326.151 197.601 327.446 195.384C330.084 191.022 332.457 186.7 335.065 182.653C337.723 178.677 340.322 174.826 342.793 171.15C345.176 167.409 347.881 164.008 350.28 160.887C351.515 159.302 352.717 157.76 353.882 156.224C355.133 154.753 356.315 153.331 357.502 151.947C362.045 146.326 366.407 141.82 369.994 138.092C373.538 134.331 376.586 131.656 378.545 129.728C380.547 127.833 381.634 126.814 381.634 126.814L382.001 127.186C382.001 127.186 381.044 128.302 379.222 130.365C377.45 132.497 374.62 135.334 371.388 139.358C368.15 143.345 364.137 148.109 359.921 153.836C358.853 155.241 357.759 156.727 356.626 158.219C355.543 159.782 354.428 161.388 353.281 163.038C350.992 166.376 348.596 169.769 346.332 173.53C344.019 177.221 341.583 181.126 339.083 185.117C336.67 189.173 334.417 193.516 331.974 197.888C330.755 200.092 329.542 202.335 328.329 204.578C327.166 206.891 326.002 209.204 324.845 211.555C322.535 216.295 319.942 220.961 317.804 226.064C315.534 231.07 313.194 236.125 310.834 241.301C308.674 246.523 306.527 251.822 304.346 257.164C299.943 267.816 295.41 278.643 291.378 289.706C287.265 300.742 283.146 311.739 279.08 322.574C275.058 333.44 270.925 344.091 266.811 354.349C264.672 359.452 262.56 364.473 260.469 369.375C258.295 374.25 256.006 378.87 253.869 383.467C249.638 392.694 244.884 401.029 240.331 408.634C237.991 412.407 235.781 416.005 233.448 419.31C232.301 420.96 231.192 422.604 230.109 424.167C228.945 425.703 227.844 427.151 226.744 428.6C224.626 431.523 222.45 434.067 220.441 436.43C219.458 437.627 218.464 438.749 217.545 439.859C216.578 440.899 215.642 441.895 214.733 442.81C211.238 446.64 208.316 449.374 206.27 451.238C204.268 453.133 203.175 454.114 203.175 454.114L202.749 453.868Z" fill="url(#paint12_linear_1_133)"/>
<path d="M187.342 458.995C187.342 458.995 188.424 457.939 190.416 455.97C191.428 454.964 192.645 453.772 194.093 452.312C195.502 450.858 197.018 449.077 198.782 447.143C200.59 445.241 202.422 442.986 204.378 440.518C206.376 438.083 208.493 435.397 210.601 432.402C214.998 426.579 219.375 419.595 223.997 411.914C228.437 404.067 233.101 395.643 237.296 386.165C239.418 381.461 241.844 376.712 243.882 371.71C245.964 366.741 248.104 361.646 250.271 356.47C254.355 346 258.539 335.166 262.563 324.045C266.631 312.957 270.747 301.668 274.9 290.372C278.852 279.03 283.538 267.926 287.801 256.847C290.037 251.35 291.957 245.823 294.448 240.482C296.831 235.195 299.182 229.952 301.475 224.835C304.044 219.753 306.555 214.796 309.039 209.921C311.485 205.052 314.286 200.478 316.865 195.977C318.193 193.721 319.413 191.519 320.752 189.339C322.14 187.228 323.491 185.124 324.815 183.1C327.533 179.005 329.959 175.031 332.653 171.288C335.326 167.665 337.908 164.21 340.356 160.892C342.978 157.704 345.465 154.651 347.792 151.817C352.396 146.079 356.988 141.546 360.516 137.677C368.009 130.261 372.437 126.179 372.437 126.179L372.803 126.551C372.803 126.551 368.829 131.069 361.91 138.941C360.276 140.972 358.444 143.227 356.489 145.694C354.49 148.13 352.325 150.745 350.21 153.702C348.053 156.627 345.766 159.727 343.356 163.039C341.078 166.447 338.632 170.036 336.128 173.75C333.694 177.415 331.323 181.497 328.8 185.602C327.558 187.652 326.283 189.745 324.976 191.882C323.751 194.046 322.575 196.279 321.367 198.556C318.989 203.105 316.296 207.624 313.92 212.443C311.544 217.263 309.103 222.171 306.604 227.203C304.23 232.294 301.835 237.505 299.408 242.759C296.926 247.905 294.892 253.449 292.564 258.844C288.083 269.762 283.21 280.661 279.019 291.962C274.697 303.166 270.375 314.37 266.144 325.405C261.956 336.473 257.533 347.266 253.292 357.721C248.768 368.102 244.464 378.139 239.757 387.307C235.388 396.656 230.394 405.207 225.779 412.926C220.956 420.559 216.378 427.495 211.856 433.26C209.666 436.229 207.506 438.882 205.425 441.291C203.388 443.732 201.513 445.955 199.661 447.825C197.853 449.727 196.256 451.481 194.808 452.941C193.311 454.331 192.056 455.529 191.039 456.497C189.003 458.434 187.916 459.451 187.916 459.451L187.342 458.995Z" fill="url(#paint13_linear_1_133)"/>
<path d="M172.976 464.314C172.976 464.314 177.179 459.843 184.518 452.03C186.441 450.151 188.214 447.791 190.148 445.212C192.125 442.666 194.225 439.907 196.492 436.968C198.889 434.126 200.93 430.717 203.187 427.199C205.405 423.686 207.872 420.019 210.228 416.137C214.581 408.039 219.613 399.567 223.932 389.962C228.626 380.533 232.854 370.322 237.338 359.763C239.477 354.44 241.643 349.036 243.797 343.556C245.907 338.045 248.006 332.457 250.175 326.82C254.432 315.519 258.704 304.062 263.013 292.598C267.323 281.135 271.996 269.771 276.415 258.524C277.541 255.718 278.666 252.913 279.791 250.108C281.003 247.367 282.222 244.664 283.402 241.967C285.8 236.566 288.128 231.215 290.756 226.052C295.805 215.639 301.178 205.837 306.41 196.637C312.072 187.721 317.259 178.993 322.733 171.656C327.816 164.029 333.509 157.627 338.112 151.7C343.026 146.036 347.405 141.19 351.115 137.297C358.813 129.817 363.24 125.545 363.24 125.545L363.606 125.916C363.606 125.916 359.577 130.516 352.505 138.56C349.188 142.742 345.152 147.808 340.493 153.627C336.184 159.704 331.136 166.279 326.196 174.078C320.914 181.658 316.202 190.198 310.827 199.226C308.347 203.824 305.813 208.586 303.254 213.43C300.569 218.214 298.325 223.359 295.762 228.435C293.155 233.479 290.745 238.804 288.265 244.178C287.042 246.843 285.786 249.552 284.53 252.261C283.355 254.996 282.218 257.725 281.05 260.498C276.418 271.623 271.521 282.787 267.005 294.166C262.533 305.576 258.017 316.955 253.592 328.164C251.341 333.775 249.123 339.342 246.931 344.827C244.658 350.286 242.373 355.67 240.158 361.003C235.473 371.516 231.062 381.793 226.156 391.099C221.624 400.581 216.339 409.169 211.774 417.144C209.304 421.043 206.75 424.646 204.412 428.138C202.069 431.592 199.946 434.974 197.473 437.828C195.125 440.74 192.944 443.472 190.885 445.992C188.87 448.544 187.015 450.878 185.081 452.682C177.562 460.328 173.266 464.697 173.266 464.697L172.976 464.314Z" fill="url(#paint14_linear_1_133)"/>
<path d="M157.751 470.656C157.751 470.656 162.023 466.052 169.471 458.058C171.431 456.132 173.191 453.653 175.205 451.059C177.22 448.465 179.389 445.615 181.694 442.627C184.123 439.699 186.152 436.171 188.528 432.629C190.817 429.023 193.403 425.333 195.742 421.293C200.322 413.071 205.376 404.39 209.949 394.578C211.134 392.148 212.32 389.717 213.575 387.238C214.711 384.737 215.842 382.199 216.966 379.623C219.215 374.47 221.692 369.283 223.858 363.832C228.395 353.016 232.788 341.756 237.299 330.246C241.815 318.773 246.422 307.132 251.029 295.49C255.592 283.817 260.161 272.181 264.672 260.67C269.404 249.088 274.359 238.209 279.614 227.517C282.188 222.199 284.904 217.054 287.648 212.098C290.349 207.11 292.942 202.177 295.901 197.616C298.773 192.99 301.397 188.519 304.277 184.202C307.141 180.044 309.904 175.978 312.581 172.119C315.133 168.202 318.177 164.715 320.765 161.296C323.479 157.937 325.846 154.591 328.444 151.753C333.554 146.013 337.828 140.904 341.742 137.014C349.582 129.31 354.041 124.91 354.041 124.91L354.407 125.282C354.407 125.282 350.31 130.015 343.092 138.247C341.22 140.237 339.459 142.715 337.401 145.277C335.343 147.839 333.13 150.658 330.782 153.613C328.352 156.541 326.193 159.973 323.686 163.418C321.31 166.959 318.531 170.406 316.073 174.426C313.526 178.381 310.889 182.506 308.155 186.761C305.53 190.961 303.005 195.573 300.322 200.17C297.602 204.773 295.08 209.657 292.411 214.601C289.742 219.545 287.059 224.647 284.593 229.91C279.363 240.248 274.176 251.395 269.299 262.534C264.576 273.921 259.762 285.477 254.948 297.034C250.178 308.622 245.364 320.179 240.679 331.56C236.032 342.936 231.406 354.192 226.667 364.961C224.42 370.385 221.873 375.621 219.504 380.753C218.304 383.341 217.13 385.847 215.961 388.391C214.7 390.833 213.439 393.275 212.21 395.673C207.457 405.318 202.111 414.121 197.356 422.214C194.897 426.234 192.229 429.897 189.859 433.476C187.401 436.991 185.291 440.493 182.78 443.395C180.4 446.394 178.142 449.18 176.046 451.747C173.95 454.315 172.146 456.761 170.143 458.655C162.521 466.521 158.156 471.022 158.156 471.022L157.751 470.656Z" fill="url(#paint15_linear_1_133)"/>
<path d="M142.378 476.012C142.378 476.012 146.715 471.326 154.243 463.098C156.235 461.131 157.984 458.58 160.069 455.94C162.11 453.268 164.318 450.415 166.688 447.345C169.144 444.338 171.156 440.702 173.646 437.148C175.962 433.465 178.706 429.795 180.985 425.614C183.346 421.46 185.798 417.137 188.346 412.683C190.856 408.234 193.108 403.36 195.594 398.489C198.117 393.612 200.411 388.499 202.807 383.293C205.241 378.081 207.657 372.755 209.926 367.22C214.676 356.271 219.194 344.815 223.911 333.134C228.596 321.498 233.366 309.655 238.136 297.812C242.862 285.937 247.626 274.056 252.305 262.381C254.855 256.648 257.372 250.958 259.857 245.312C262.542 239.714 265.164 234.202 267.765 228.81C273.336 218.164 278.682 207.823 284.568 198.485C285.993 196.1 287.423 193.752 288.822 191.448C290.313 189.247 291.766 187.051 293.188 184.898C296.112 180.62 298.694 176.393 301.605 172.543C307.384 164.811 312.674 157.696 317.848 151.876C320.386 148.896 322.763 146.135 324.935 143.559C327.195 141.048 329.43 138.889 331.373 136.851C335.309 132.847 338.323 129.679 340.488 127.569C342.664 125.535 343.854 124.426 343.854 124.426L344.221 124.797C344.221 124.797 343.156 125.965 341.165 128.203C339.219 130.474 336.385 133.808 332.799 138.07C331.025 140.198 328.97 142.524 326.879 145.126C324.838 147.798 322.63 150.651 320.261 153.721C315.348 159.734 310.635 167.072 305.172 174.834C302.418 178.699 299.934 183.066 297.13 187.365C295.752 189.55 294.38 191.772 292.938 194.044C291.654 196.331 290.337 198.661 288.988 201.035C283.543 210.461 278.092 220.624 272.748 231.236C270.098 236.558 267.427 241.999 264.724 247.484C262.114 253.072 259.51 258.697 256.841 264.41C251.949 275.961 247.005 287.675 242.028 299.433C237.089 311.186 232.15 322.938 227.264 334.527C222.367 346.041 217.659 357.526 212.708 368.427C210.358 373.937 207.827 379.28 205.312 384.465C202.84 389.683 200.432 394.813 197.778 399.593C195.173 404.443 192.822 409.178 190.204 413.681C187.536 418.115 185.003 422.411 182.523 426.545C180.124 430.705 177.298 434.349 174.901 438.005C172.335 441.57 170.235 445.143 167.697 448.122C165.247 451.166 162.963 454.03 160.834 456.638C158.706 459.246 156.875 461.77 154.839 463.705C147.093 471.773 142.707 476.388 142.707 476.388L142.378 476.012Z" fill="url(#paint16_linear_1_133)"/>
<path d="M127.149 482.316C127.149 482.316 131.51 477.506 139.166 469.055C142.907 464.765 146.908 459.116 151.796 452.907C154.194 449.751 156.365 446.125 158.839 442.453C161.227 438.717 163.994 434.923 166.301 430.656C168.734 426.447 171.251 422.031 173.866 417.484C176.268 412.814 178.761 407.975 181.312 403.011C186.246 392.992 191.284 382.375 196.041 371.18C200.999 360.032 205.605 348.355 210.53 336.474C215.379 324.605 220.281 312.573 225.215 300.497C230.193 288.454 234.775 276.353 240.053 264.497C245.441 252.857 250.499 241.345 255.953 230.394C261.902 219.639 267.55 209.202 273.143 199.433C279.194 189.866 284.773 181.03 290.678 173.076C296.252 164.978 302.129 158.115 307.142 151.964C312.105 145.744 317.08 140.88 320.902 136.616C324.724 132.353 328.079 129.363 330.24 127.213C332.444 125.095 333.63 123.946 333.63 123.946L334.035 124.312C334.035 124.312 332.974 125.52 330.956 127.842C328.981 130.197 325.845 133.348 322.329 137.837C320.527 140.049 318.564 142.479 316.402 145.134C314.196 147.757 311.828 150.597 309.556 153.812C307.203 157 304.72 160.363 302.076 163.944C299.383 167.455 296.998 171.462 294.216 175.413C288.684 183.272 283.206 192.52 277.573 202.024C272.42 211.882 266.744 222.129 260.973 232.779C255.421 243.59 250.248 255.12 244.609 266.642C239.268 278.081 234.357 290.309 229.16 302.191C224.057 314.176 218.953 326.161 213.935 337.939C208.874 349.685 204.034 361.359 198.913 372.454C196.415 378.031 193.938 383.488 191.28 388.779C188.655 394.026 186.312 399.346 183.554 404.225C180.882 409.168 178.302 413.943 175.781 418.592C173.047 423.118 170.403 427.475 167.889 431.658C165.462 435.904 162.652 439.666 160.145 443.382C157.55 447.033 155.335 450.627 152.851 453.718C147.799 459.874 143.673 465.464 139.844 469.69C132.008 477.974 127.559 482.72 127.559 482.72L127.149 482.316Z" fill="url(#paint17_linear_1_133)"/>
<path d="M111.948 488.812C111.948 488.812 116.361 483.882 124.09 475.234C127.758 470.766 131.948 465.133 136.843 458.774C139.088 455.412 141.462 451.875 143.959 448.126C145.224 446.23 146.489 444.333 147.818 442.35C149.022 440.307 150.258 438.221 151.526 436.092C153.981 431.806 156.815 427.464 159.201 422.724C161.707 418.004 164.26 413.084 166.915 408.07C169.364 402.972 171.903 397.705 174.469 392.356C177.029 386.969 179.441 381.373 181.962 375.721C191.873 353.022 201.726 328.394 211.879 303.954C214.406 297.836 216.896 291.724 219.423 285.605C220.706 282.543 221.842 279.542 223.233 276.425C224.603 273.428 225.94 270.474 227.272 267.482C229.98 261.53 232.661 255.66 235.272 249.84C236.621 246.962 237.883 244.019 239.281 241.211C240.756 238.392 242.236 235.61 243.683 232.872C246.655 227.384 249.562 221.984 252.405 216.671C253.826 214.015 255.253 211.396 256.648 208.821C258.058 206.089 259.694 203.826 261.187 201.392C264.262 196.586 267.033 191.827 270.088 187.412C273.139 182.959 276.098 178.675 278.966 174.56C281.797 170.45 284.885 166.767 287.638 163.173C290.435 159.611 293.01 156.121 295.741 153.151C301.11 147.108 305.496 141.484 309.742 137.51C317.925 129.298 322.605 124.599 322.605 124.599L323.009 124.965C323.009 124.965 318.689 129.997 311.135 138.773C310.179 139.886 309.184 141.005 308.131 142.249C307.16 143.52 306.157 144.834 305.083 146.198C302.936 148.925 300.589 151.877 298.12 155.04C295.564 158.139 293.195 161.714 290.567 165.366C288.026 169.083 285.145 172.852 282.434 176.982C279.76 181.107 276.959 185.406 274.066 189.874C271.167 194.303 268.495 199.203 265.546 204.067C262.559 208.937 259.953 214.02 257.18 219.284C254.408 224.547 251.571 229.898 248.707 235.331C247.254 238.031 245.768 240.775 244.282 243.518C242.846 246.332 241.578 249.237 240.186 252.083C237.449 257.845 234.687 263.688 231.892 269.576C230.473 272.503 229.097 275.463 227.684 278.428C226.329 281.268 225.058 284.406 223.726 287.398C221.111 293.452 218.497 299.505 215.85 305.603C205.327 329.905 195.125 354.276 184.817 376.917C182.178 382.549 179.684 388.119 177.005 393.485C174.325 398.851 171.666 404.097 169.098 409.175C166.361 414.162 163.678 418.986 161.09 423.679C158.552 428.442 155.631 432.72 153.094 436.979C151.788 439.114 150.509 441.168 149.261 443.178C147.888 445.13 146.586 447.032 145.278 448.896C142.699 452.619 140.205 456.135 137.916 459.465C132.821 465.777 128.505 471.351 124.75 475.755C116.841 484.236 112.335 489.063 112.335 489.063L111.948 488.812Z" fill="url(#paint18_linear_1_133)"/>
<path d="M96.7126 495.08C96.7126 495.08 101.203 490.031 109.013 481.193C112.63 476.546 117.079 470.962 121.917 464.352C126.493 457.549 131.897 450.041 136.916 441.276C138.222 439.106 139.529 436.936 140.9 434.679C142.163 432.477 143.348 430.016 144.62 427.619C147.121 422.792 149.713 417.798 152.359 412.64C154.966 407.489 157.872 402.253 160.472 396.794C162.947 391.275 165.48 385.632 168.072 379.864C170.632 374.139 173.251 368.289 175.902 362.396C178.422 356.407 180.968 350.336 183.547 344.221C188.667 331.998 193.878 319.607 199.121 307.172C201.726 300.976 204.326 294.742 206.894 288.552C209.569 282.307 212.399 276.31 215.104 270.254C217.852 264.23 220.568 258.25 223.251 252.313C226.06 246.435 229.176 240.781 232.057 235.124C235.026 229.531 237.968 224.019 240.807 218.6C243.673 213.1 246.903 208.203 249.887 203.226C252.795 198.261 256.059 193.591 259.1 188.993C262.147 184.433 265.059 180.009 268.147 175.984C271.149 171.894 274.059 167.974 276.851 164.303C279.812 160.722 282.612 157.36 285.244 154.177C290.328 147.646 295.651 142.704 299.636 138.427C307.851 129.954 312.566 125.103 312.566 125.103L312.971 125.467C312.971 125.467 308.655 130.644 301.032 139.686C299.117 141.948 297.002 144.434 294.725 147.137C293.603 148.467 292.264 149.907 291.197 151.345C290.066 152.869 288.864 154.443 287.635 156.099C285.172 159.372 282.547 162.863 279.793 166.528C277.214 170.321 274.468 174.295 271.63 178.437C268.667 182.52 265.913 186.959 263.062 191.528C260.173 196.103 257.143 200.777 254.329 205.844C252.877 208.345 251.432 210.885 249.954 213.467C248.438 216.056 246.905 218.531 245.565 221.248C242.758 226.623 239.924 232.079 237.031 237.661C234.138 243.242 231.006 248.783 228.109 254.597C225.338 260.469 222.497 266.391 219.667 272.389C216.875 278.381 213.855 284.407 211.145 290.425C208.452 296.557 205.727 302.732 203.034 308.864C197.621 321.208 192.241 333.509 186.92 345.685C184.253 351.736 181.625 357.78 179.017 363.705C176.252 369.616 173.552 375.439 170.878 381.181C168.204 386.923 165.551 392.546 163 398.075C160.324 403.547 157.325 408.68 154.636 413.805C151.865 418.904 149.185 423.835 146.602 428.635C145.254 431.043 144.09 433.385 142.686 435.686C141.271 437.911 139.889 440.092 138.538 442.23C133.312 450.911 127.745 458.366 123.043 465.11C118.041 471.668 113.467 477.193 109.724 481.782C101.734 490.453 97.1501 495.4 97.1501 495.4L96.7126 495.08Z" fill="url(#paint19_linear_1_133)"/>
<path d="M82.6047 502.111C82.6047 502.111 87.0848 496.942 94.9251 487.897C98.5376 483.131 103.013 477.421 107.838 470.69C112.439 463.761 117.819 456.094 122.896 447.195C124.187 444.987 125.554 442.766 126.909 440.471C128.151 438.192 129.402 435.718 130.659 433.282C133.205 428.367 135.803 423.289 138.498 418.08C141.112 412.845 144.103 407.553 146.665 401.977C149.184 396.368 151.761 390.635 154.402 384.815C157.006 379 159.667 373.061 162.356 367.04C164.919 360.96 167.509 354.799 170.093 348.6C175.299 336.196 180.628 323.58 185.918 310.97C188.561 304.646 191.204 298.322 193.852 292.036C196.625 285.808 199.447 279.651 202.194 273.505C204.984 267.391 207.618 261.262 210.469 255.294C213.482 249.378 216.47 243.545 219.399 237.836C222.403 232.115 225.343 226.482 228.231 221.012C231.374 215.697 234.42 210.512 237.408 205.453C243.759 195.51 249.795 186.04 255.894 177.762C261.689 169.258 267.916 162.083 273.034 155.502C278.445 149.07 283.286 143.73 287.334 139.286C295.757 130.772 300.591 125.899 300.591 125.899L300.957 126.27C300.957 126.27 296.515 131.433 288.756 140.504C285.094 145.2 280.461 150.895 275.413 157.427C270.594 164.196 264.904 171.6 259.354 180.183C253.504 188.579 247.853 198.029 241.821 208.04C238.92 213.164 235.917 218.38 232.861 223.76C230.049 229.219 227.211 234.759 224.277 240.43C221.299 246.069 218.3 251.827 215.269 257.629C212.369 263.527 209.573 269.603 206.701 275.69C203.83 281.778 200.926 287.909 198.028 294.078C195.293 300.3 192.519 306.527 189.79 312.787C184.293 325.312 178.833 337.831 173.421 350.15C170.718 356.328 168.041 362.425 165.396 368.478C162.589 374.478 159.846 380.392 157.129 386.223C154.412 392.055 151.716 397.768 149.122 403.387C146.484 408.975 143.399 414.165 140.667 419.379C137.891 424.562 135.167 429.581 132.534 434.432C131.202 436.88 129.971 439.234 128.59 441.611C127.191 443.875 125.786 446.101 124.414 448.283C119.136 457.135 113.588 464.71 108.824 471.587C103.837 478.265 99.1985 483.922 95.4989 488.624C87.4788 497.502 82.9116 502.606 82.9116 502.606L82.6047 502.111Z" fill="url(#paint20_linear_1_133)"/>
<path d="M67.5408 509.518C67.5408 509.518 72.0518 504.221 79.9569 494.96C83.5605 490.071 88.1544 484.296 92.9992 477.359C97.7131 470.325 103.114 462.45 108.262 453.411C109.594 451.193 110.914 448.899 112.311 446.593C113.576 444.191 114.83 441.713 116.122 439.23C118.7 434.225 121.413 429.083 124.14 423.784C125.523 421.131 126.9 418.441 128.347 415.701C129.074 414.35 129.756 412.967 130.483 411.616C131.122 410.201 131.761 408.786 132.438 407.365C135.027 401.66 137.674 395.83 140.386 389.912C143.054 383.963 145.88 378.028 148.513 371.851C151.147 365.674 153.808 359.415 156.462 353.118C161.809 340.519 167.241 327.714 172.673 314.908C175.424 308.48 177.986 302.081 180.862 295.712C183.706 289.387 186.556 283.1 189.335 276.862C194.72 264.257 201.015 252.291 206.96 240.571C212.867 228.857 219.11 217.83 225.403 207.648C228.632 202.583 231.801 197.644 234.842 192.88C238.057 188.244 241.176 183.739 244.172 179.447C247.08 175.09 250.334 171.224 253.209 167.416C256.134 163.677 258.869 159.967 261.689 156.826C267.276 150.436 271.87 144.661 276.171 140.288C284.698 131.554 289.564 126.552 289.564 126.552L289.93 126.924C289.93 126.924 285.457 132.215 277.596 141.508C275.57 143.754 273.575 146.46 271.344 149.395C269.106 152.293 266.633 155.421 264.036 158.76C261.357 162.074 258.882 165.706 256.138 169.611C253.475 173.543 250.422 177.456 247.639 181.871C244.806 186.217 241.844 190.737 238.754 195.431C235.871 200.211 232.897 205.159 229.831 210.277C223.914 220.634 217.572 231.522 211.887 243.163C205.913 254.693 199.557 266.514 193.922 279.001C190.979 285.186 188.048 291.447 185.079 297.713C182.136 303.898 179.429 310.358 176.547 316.689C170.908 329.41 165.313 342.163 159.759 354.677C156.986 360.952 154.238 367.147 151.523 373.297C148.807 379.448 145.868 385.4 143.081 391.329C140.293 397.257 137.526 403.067 134.856 408.745C134.179 410.166 133.502 411.587 132.857 412.965C132.131 414.316 131.366 415.672 130.64 417.023C129.187 419.725 127.729 422.389 126.302 425.009C123.45 430.25 120.655 435.365 117.99 440.305C116.655 442.757 115.319 445.208 114.01 447.578C112.576 449.889 111.179 452.194 109.771 454.424C104.379 463.384 98.8151 471.206 93.976 478.181C88.9682 485.066 84.2492 490.782 80.5584 495.606C72.4787 504.738 67.8748 509.933 67.8748 509.933L67.5408 509.518Z" fill="url(#paint21_linear_1_133)"/>
<path d="M52.4779 516.925C52.4779 516.925 57.009 511.503 64.9166 501.998C68.5403 496.985 73.16 491.122 78.0189 484.019C80.3857 480.438 82.9077 476.601 85.5584 472.589C88.209 468.577 90.6772 464.127 93.4428 459.592C96.2579 455.128 98.7388 450.249 101.381 445.151C104.028 440.09 106.761 434.823 109.558 429.469C115.428 418.795 120.439 407.048 126.033 395.057C131.676 383.137 136.896 370.464 142.408 357.67C147.882 344.882 153.397 331.855 158.956 318.859C164.352 305.811 170.312 292.91 175.955 280.213C177.377 277.047 178.798 273.881 180.22 270.715C181.685 267.581 183.275 264.505 184.79 261.442C187.857 255.308 190.897 249.257 193.879 243.331C195.405 240.343 196.899 237.399 198.437 234.487C200.024 231.645 201.616 228.841 203.177 226.081C204.737 223.322 206.297 220.562 207.826 217.845C209.397 215.161 211.094 212.536 212.678 209.928C219.005 199.458 225.558 189.963 231.607 181.244C234.797 176.956 237.827 172.887 240.728 168.992C243.656 165.016 246.718 161.68 249.423 158.281C254.936 151.662 259.594 145.794 264.052 141.431C272.626 132.486 277.512 127.36 277.512 127.36L277.916 127.726C277.916 127.726 273.385 133.148 265.515 142.647C261.443 147.262 257.053 153.362 251.846 160.207C249.304 163.659 246.319 167.255 243.733 171.18C241.001 175.165 238.14 179.325 235.15 183.66C229.389 192.492 223.12 202.06 217.145 212.555C214.048 217.722 210.992 223.154 207.92 228.744C206.365 231.542 204.811 234.34 203.224 237.182C201.762 240.082 200.301 242.983 198.845 245.921C195.813 251.777 192.761 257.753 189.639 263.778C188.081 266.809 186.523 269.841 184.97 272.91C183.505 276.044 182.04 279.178 180.537 282.318C174.612 294.941 168.503 307.631 162.862 320.6C157.135 333.504 151.413 346.446 145.776 359.182C140.134 371.879 134.707 384.466 128.874 396.415C123.084 408.396 117.922 420.167 111.833 430.679C108.917 436.012 106.097 441.215 103.363 446.211C100.666 451.201 98.001 456.147 95.1044 460.584C92.2515 465.054 89.7018 469.478 86.9696 473.464C84.2374 477.449 81.6282 481.222 79.1798 484.776C74.1957 491.82 69.413 497.63 65.702 502.578C57.6141 511.916 52.9521 517.242 52.9521 517.242L52.4779 516.925Z" fill="url(#paint22_linear_1_133)"/>
</g>
<defs>
<linearGradient id="paint0_linear_1_133" x1="414.158" y1="159.324" x2="449.679" y2="394.658" gradientUnits="userSpaceOnUse">
<stop stop-color="#FFFCF9"/>
<stop offset="1" stop-color="#FFA6A6" stop-opacity="0"/>
</linearGradient>
<linearGradient id="paint1_linear_1_133" x1="402.833" y1="157.999" x2="438.951" y2="397.289" gradientUnits="userSpaceOnUse">
<stop stop-color="#FFFCF9"/>
<stop offset="1" stop-color="#FFA6A6" stop-opacity="0"/>
</linearGradient>
<linearGradient id="paint2_linear_1_133" x1="390.865" y1="155.76" x2="427.729" y2="399.994" gradientUnits="userSpaceOnUse">
<stop stop-color="#FFFCF9"/>
<stop offset="1" stop-color="#FFA6A6" stop-opacity="0"/>
</linearGradient>
<linearGradient id="paint3_linear_1_133" x1="379.541" y1="154.436" x2="417.002" y2="402.624" gradientUnits="userSpaceOnUse">
<stop stop-color="#FFFCF9"/>
<stop offset="1" stop-color="#FFA6A6" stop-opacity="0"/>
</linearGradient>
<linearGradient id="paint4_linear_1_133" x1="367.722" y1="153.185" x2="405.78" y2="405.329" gradientUnits="userSpaceOnUse">
<stop stop-color="#FFFCF9"/>
<stop offset="1" stop-color="#FFA6A6" stop-opacity="0"/>
</linearGradient>
<linearGradient id="paint5_linear_1_133" x1="355.753" y1="150.947" x2="394.707" y2="409.024" gradientUnits="userSpaceOnUse">
<stop stop-color="#FFFCF9"/>
<stop offset="1" stop-color="#FFA6A6" stop-opacity="0"/>
</linearGradient>
<linearGradient id="paint6_linear_1_133" x1="343.934" y1="149.697" x2="383.634" y2="412.717" gradientUnits="userSpaceOnUse">
<stop stop-color="#FFFCF9"/>
<stop offset="1" stop-color="#FFA6A6" stop-opacity="0"/>
</linearGradient>
<linearGradient id="paint7_linear_1_133" x1="331.621" y1="148.521" x2="372.067" y2="416.486" gradientUnits="userSpaceOnUse">
<stop stop-color="#FFFCF9"/>
<stop offset="1" stop-color="#FFA6A6" stop-opacity="0"/>
</linearGradient>
<linearGradient id="paint8_linear_1_133" x1="319.802" y1="147.271" x2="360.994" y2="420.18" gradientUnits="userSpaceOnUse">
<stop stop-color="#FFFCF9"/>
<stop offset="1" stop-color="#FFA6A6" stop-opacity="0"/>
</linearGradient>
<linearGradient id="paint9_linear_1_133" x1="307.488" y1="146.096" x2="349.427" y2="423.949" gradientUnits="userSpaceOnUse">
<stop stop-color="#FFFCF9"/>
<stop offset="1" stop-color="#FFA6A6" stop-opacity="0"/>
</linearGradient>
<linearGradient id="paint10_linear_1_133" x1="295.324" y1="145.909" x2="337.86" y2="427.717" gradientUnits="userSpaceOnUse">
<stop stop-color="#FFFCF9"/>
<stop offset="1" stop-color="#FFA6A6" stop-opacity="0"/>
</linearGradient>
<linearGradient id="paint11_linear_1_133" x1="283.011" y1="144.734" x2="326.442" y2="432.474" gradientUnits="userSpaceOnUse">
<stop stop-color="#FFFCF9"/>
<stop offset="1" stop-color="#FFA6A6" stop-opacity="0"/>
</linearGradient>
<linearGradient id="paint12_linear_1_133" x1="270.203" y1="143.633" x2="314.53" y2="437.307" gradientUnits="userSpaceOnUse">
<stop stop-color="#FFFCF9"/>
<stop offset="1" stop-color="#FFA6A6" stop-opacity="0"/>
</linearGradient>
<linearGradient id="paint13_linear_1_133" x1="257.545" y1="143.521" x2="302.618" y2="442.138" gradientUnits="userSpaceOnUse">
<stop stop-color="#FFFCF9"/>
<stop offset="1" stop-color="#FFA6A6" stop-opacity="0"/>
</linearGradient>
<linearGradient id="paint14_linear_1_133" x1="245.381" y1="143.334" x2="291.2" y2="446.896" gradientUnits="userSpaceOnUse">
<stop stop-color="#FFFCF9"/>
<stop offset="1" stop-color="#FFA6A6" stop-opacity="0"/>
</linearGradient>
<linearGradient id="paint15_linear_1_133" x1="232.722" y1="143.222" x2="279.437" y2="452.716" gradientUnits="userSpaceOnUse">
<stop stop-color="#FFFCF9"/>
<stop offset="1" stop-color="#FFA6A6" stop-opacity="0"/>
</linearGradient>
<linearGradient id="paint16_linear_1_133" x1="219.569" y1="143.185" x2="267.03" y2="457.623" gradientUnits="userSpaceOnUse">
<stop stop-color="#FFFCF9"/>
<stop offset="1" stop-color="#FFA6A6" stop-opacity="0"/>
</linearGradient>
<linearGradient id="paint17_linear_1_133" x1="206.417" y1="143.147" x2="254.773" y2="463.519" gradientUnits="userSpaceOnUse">
<stop stop-color="#FFFCF9"/>
<stop offset="1" stop-color="#FFA6A6" stop-opacity="0"/>
</linearGradient>
<linearGradient id="paint18_linear_1_133" x1="192.919" y1="144.174" x2="242.021" y2="469.489" gradientUnits="userSpaceOnUse">
<stop stop-color="#FFFCF9"/>
<stop offset="1" stop-color="#FFA6A6" stop-opacity="0"/>
</linearGradient>
<linearGradient id="paint19_linear_1_133" x1="179.914" y1="145.125" x2="229.763" y2="475.384" gradientUnits="userSpaceOnUse">
<stop stop-color="#FFFCF9"/>
<stop offset="1" stop-color="#FFA6A6" stop-opacity="0"/>
</linearGradient>
<linearGradient id="paint20_linear_1_133" x1="166.417" y1="146.151" x2="217.161" y2="482.343" gradientUnits="userSpaceOnUse">
<stop stop-color="#FFFCF9"/>
<stop offset="1" stop-color="#FFA6A6" stop-opacity="0"/>
</linearGradient>
<linearGradient id="paint21_linear_1_133" x1="152.919" y1="147.177" x2="204.558" y2="489.302" gradientUnits="userSpaceOnUse">
<stop stop-color="#FFFCF9"/>
<stop offset="1" stop-color="#FFA6A6" stop-opacity="0"/>
</linearGradient>
<linearGradient id="paint22_linear_1_133" x1="138.926" y1="148.278" x2="191.462" y2="496.335" gradientUnits="userSpaceOnUse">
<stop stop-color="#FFFCF9"/>
<stop offset="1" stop-color="#FFA6A6" stop-opacity="0"/>
</linearGradient>
</defs>
</svg>
