<svg width="121" height="78" viewBox="0 0 121 78" fill="none" xmlns="http://www.w3.org/2000/svg">
<path d="M23.5112 53.8625L23.1268 54.5054C22.2317 54.5054 21.3681 54.5685 20.5298 54.7008C18.5254 61.5147 13.9302 64.9185 6.7571 64.9185C4.98588 64.9185 3.51091 64.6411 2.33849 64.0801C0.781583 63.3489 0 62.1954 0 60.607C0 59.7056 0.296231 58.9493 0.882437 58.3378C1.46864 57.7264 2.21245 57.4239 3.10752 57.4239C4.66443 57.4239 5.44605 58.0794 5.44605 59.3842C5.44605 60.0271 5.12457 60.4809 4.48794 60.7331C4.12235 60.8213 3.58656 60.9663 2.86799 61.168C2.14941 61.3697 1.79642 61.7227 1.79642 62.2144C1.79642 62.9014 2.36372 63.4246 3.49201 63.7902C4.34295 64.0675 5.2002 64.2062 6.05745 64.2062C8.47161 64.2062 10.5328 63.2733 12.241 61.4075C13.5205 60.0145 14.6866 57.9911 15.733 55.3312C14.7055 55.5203 13.5962 55.9426 12.4049 56.5792C12.0834 56.7683 11.0623 57.3671 9.32886 58.3757L9.17127 58.3126C9.15236 58.2496 9.12717 58.1929 9.10826 58.155C9.10826 57.5562 10.1105 56.8314 12.1212 55.9741C13.7853 55.2681 15.0775 54.8332 15.9977 54.663C16.5335 53.1502 17.5357 51.2782 19.0107 49.0594C20.8071 46.349 22.2317 44.9686 23.3032 44.9307L23.4293 44.9938L23.4923 45.2207C22.7044 47.1432 22.156 48.574 21.8598 49.5132C21.4123 50.9441 21.0593 52.4506 20.8008 54.0264C21.4123 53.9823 22.3199 53.9255 23.5112 53.8625ZM9.16496 54.5685C8.01146 54.5685 7.05965 54.2407 6.31587 53.5915C5.56578 52.9422 5.1939 52.0471 5.1939 50.9189C5.1939 49.9166 5.52168 48.8577 6.18983 47.7483C7.55764 45.4665 9.51165 43.626 12.0519 42.2392C14.5291 40.8714 17.1197 40.1907 19.8364 40.1907C20.8197 40.1907 22.2758 40.4113 24.2109 40.8462C26.146 41.2875 27.5769 41.5017 28.5161 41.5017C28.9636 41.5017 29.7956 41.2685 31.0122 40.7958L31.2013 40.8588L31.2643 41.0479C31.2643 41.7539 30.7537 42.4473 29.7263 43.128C28.7871 43.7899 27.9424 44.1239 27.1987 44.1239C26.3036 44.1239 24.6837 43.7079 22.3452 42.8759C20.0066 42.0438 18.2102 41.6278 16.9495 41.6278C14.0248 41.6278 11.2072 43.0398 8.49682 45.8573C6.76972 47.6538 5.89987 49.3241 5.89987 50.8874C5.89987 51.5933 6.10159 52.1984 6.505 52.7153C6.90841 53.2259 7.45677 53.4843 8.13753 53.4843C9.86463 53.4843 11.3522 52.7153 12.5876 51.1773C13.7601 49.7465 14.3463 48.1454 14.3463 46.3742C14.3463 45.8825 14.1446 45.6367 13.7348 45.6367C13.2621 45.6367 12.7768 46.1725 12.2599 47.2377C11.8754 48.0509 11.6169 48.7884 11.4909 49.4502C11.0181 49.6645 10.4761 49.986 9.85835 50.4083C8.87504 51.0891 8.36447 51.4546 8.32034 51.4988C8.27622 51.3475 8.23209 51.1899 8.19427 51.0197C8.19427 49.2674 8.65441 47.7231 9.56838 46.3742C10.5958 44.8362 11.9384 44.0672 13.6025 44.0672C15.0775 44.0672 15.8149 45.0568 15.8149 47.0423V47.3638C15.8149 49.3304 15.1972 51.0071 13.9555 52.3938C12.7074 53.8436 11.1064 54.5685 9.16496 54.5685Z" fill="#191919"/>
<path d="M31.8377 57.1651C31.8377 57.4236 31.5288 57.6253 30.9111 57.7703C30.4195 57.8963 29.9909 57.9657 29.6316 57.9657C29.3984 57.9657 29.1588 57.9657 28.9256 57.9657C28.1125 59.51 27.1544 60.8967 26.045 62.1195C24.507 63.834 23.1329 64.6913 21.9163 64.6913C20.227 64.6913 19.3887 63.9223 19.3887 62.3843C19.3887 60.4618 20.309 58.3376 22.1433 56.0117C24.0658 53.5975 25.963 52.3936 27.8414 52.3936C29.2912 52.3936 30.0224 53.068 30.0224 54.4106C30.0224 54.8581 29.7892 55.7343 29.3164 57.0391C29.5307 57.1021 29.7198 57.1336 29.8963 57.1336C30.0665 57.1336 30.3249 57.1021 30.6653 57.0391C31.0057 56.9761 31.2641 56.9445 31.4343 56.9445C31.699 56.9382 31.8377 57.0139 31.8377 57.1651ZM27.999 57.7387C26.8266 57.6127 25.9945 57.0328 25.5029 56.0117C25.1373 56.4403 24.6078 57.3543 23.9019 58.7662V58.7347C23.8577 58.9679 23.6876 59.4154 23.3913 60.0773C23.1329 60.6509 23.0068 61.111 23.0068 61.4514C23.0068 61.88 23.2211 62.0943 23.6497 62.0943C25.0301 62.0943 26.4799 60.6446 27.999 57.7387ZM29.1147 54.5997C29.1147 53.8937 28.8373 53.5408 28.2827 53.5408C27.854 53.5408 27.4002 53.7362 26.9211 54.1207C26.4421 54.5052 26.2026 54.9023 26.2026 55.3057C26.2026 55.7343 26.4232 56.1251 26.8581 56.4718C27.293 56.8185 27.728 57.0013 28.1566 57.0013C28.2007 57.0013 28.2511 56.9887 28.3142 56.9697V56.9382C28.5096 56.9382 28.6987 56.5979 28.8941 55.9108C29.0453 55.3813 29.1147 54.9401 29.1147 54.5997Z" fill="#191919"/>
<path d="M42.5346 57.1651C42.5346 57.4236 42.2257 57.6253 41.608 57.7703C41.1163 57.8963 40.6877 57.9657 40.3284 57.9657C40.0952 57.9657 39.8557 57.9657 39.6224 57.9657C38.8093 59.51 37.8512 60.8967 36.7418 62.1195C35.2038 63.834 33.8297 64.6913 32.6132 64.6913C30.9239 64.6913 30.0856 63.9223 30.0856 62.3843C30.0856 60.4618 31.0058 58.3376 32.8401 56.0117C34.7626 53.5975 36.6599 52.3936 38.5383 52.3936C39.9881 52.3936 40.7192 53.068 40.7192 54.4106C40.7192 54.8581 40.486 55.7343 40.0132 57.0391C40.2276 57.1021 40.4166 57.1336 40.5931 57.1336C40.7633 57.1336 41.0218 57.1021 41.3622 57.0391C41.7025 56.9761 41.961 56.9445 42.1311 56.9445C42.3959 56.9382 42.5346 57.0139 42.5346 57.1651ZM38.6959 57.7387C37.5235 57.6127 36.6914 57.0328 36.1998 56.0117C35.8342 56.4403 35.3047 57.3543 34.5987 58.7662V58.7347C34.5546 58.9679 34.3844 59.4154 34.0882 60.0773C33.8297 60.6509 33.7037 61.111 33.7037 61.4514C33.7037 61.88 33.918 62.0943 34.3466 62.0943C35.727 62.0943 37.1768 60.6446 38.6959 57.7387ZM39.8115 54.5997C39.8115 53.8937 39.5342 53.5408 38.9795 53.5408C38.5509 53.5408 38.0971 53.7362 37.618 54.1207C37.139 54.5052 36.8994 54.9023 36.8994 55.3057C36.8994 55.7343 37.1201 56.1251 37.555 56.4718C37.9899 56.8185 38.4248 57.0013 38.8535 57.0013C38.8976 57.0013 38.948 56.9887 39.011 56.9697V56.9382C39.2064 56.9382 39.3955 56.5979 39.5909 55.9108C39.7422 55.3813 39.8115 54.9401 39.8115 54.5997Z" fill="#191919"/>
<path d="M58.6456 43.4552C58.0909 44.8671 57.2022 46.8905 55.9857 49.5378C55.1536 51.328 54.5548 52.5823 54.1955 53.282C53.5148 54.6939 52.8277 55.8979 52.1469 56.9001C50.8863 58.7785 50.0227 60.3354 49.55 61.5771L49.84 61.7662C50.6531 61.5078 51.3653 60.9216 51.9894 60.0076C52.6953 58.9865 53.1429 58.4066 53.332 58.2805H53.458C53.54 58.3877 53.5841 58.5074 53.5841 58.6335C53.5841 59.5286 52.8403 60.7388 51.359 62.2516C49.8778 63.7707 48.6865 64.5271 47.7851 64.5271C47.1043 64.5271 46.6316 64.3569 46.3732 64.0165C46.3101 63.9346 46.1273 63.4618 45.831 62.6046C45.1062 63.8841 44.1103 64.5271 42.8496 64.5271C42.276 64.5271 41.7717 64.2812 41.3431 63.7896C40.9145 63.2979 40.7002 62.7621 40.7002 62.1885C40.7002 60.3732 42.2004 57.896 45.1944 54.757C46.8018 53.0677 48.2641 52.2294 49.5878 52.2294C49.758 52.2294 50.0605 52.3428 50.4829 52.5634C50.9115 52.7904 51.2204 52.9101 51.4158 52.929C51.504 52.8849 51.5734 52.7399 51.6427 52.4815C51.7246 52.1411 52.1028 51.183 52.7647 49.6072C53.956 46.7203 54.9519 44.4889 55.7587 42.9068L57.5489 42.8375C58.0279 42.8249 58.3872 43.0266 58.6456 43.4552ZM50.798 53.8304C50.735 53.553 50.5396 53.4144 50.2181 53.4144C49.9219 53.4144 49.6004 53.553 49.26 53.8304V53.7989C48.1948 54.675 47.1863 55.8159 46.2471 57.2279C45.1377 58.873 44.583 60.2471 44.583 61.3565C44.583 61.804 44.7658 62.031 45.1251 62.031C45.6167 62.031 46.6442 60.827 48.2011 58.4129C49.5941 56.2761 50.4577 54.7507 50.798 53.8304Z" fill="#191919"/>
<path d="M98.3878 52.356L95.6963 56.9069C95.2236 57.6759 94.7571 58.4323 94.2844 59.1824C93.7486 60.0775 93.3578 60.878 93.0993 61.584L93.3893 61.7731C94.2024 61.5146 94.9714 60.878 95.6963 59.8506C96.4212 58.8231 96.8183 58.3 96.8813 58.2811H97.0074C97.0893 58.3882 97.1335 58.508 97.1335 58.634C97.1335 59.5291 96.3897 60.7393 94.9084 62.2521C93.4271 63.7712 92.2358 64.5276 91.3344 64.5276C90.6536 64.5276 90.1809 64.3574 89.9225 64.017C89.8594 63.9351 89.6767 63.4624 89.3804 62.6051C88.6555 63.8847 87.6596 64.5276 86.399 64.5276C85.8254 64.5276 85.3211 64.2818 84.8925 63.7901C84.4638 63.2985 84.2495 62.7627 84.2495 62.1891C84.2495 61.7605 84.3567 61.3129 84.571 60.8465L88.2836 52.6459L91.9647 52.356C91.1138 53.5095 90.2755 54.8521 89.4687 56.3901C88.4853 58.2937 87.9937 59.7434 87.9937 60.7456C87.9937 61.6029 88.2206 62.0252 88.6681 62.0252C89.248 62.0252 90.3637 60.6511 92.0278 57.8966C93.3074 55.8039 94.2591 54.0516 94.8768 52.6459L98.3878 52.356Z" fill="#191919"/>
<path d="M109.519 43.2981L106.992 48.1327H109.381L109.154 48.9963H106.374L101.042 59.0815C100.663 59.8064 100.474 60.6195 100.474 61.5209L100.827 62.2899C100.909 62.3088 100.966 62.3214 100.985 62.3214C101.388 62.3214 102.044 61.8172 102.939 60.8149C103.834 59.8127 104.389 59.3084 104.603 59.3084C104.71 59.3084 104.76 59.3589 104.76 59.466C104.76 59.7245 104.288 60.4052 103.349 61.5146C101.47 63.7333 100.102 64.8427 99.2514 64.8427C98.7156 64.8427 98.2744 64.6473 97.9214 64.2502C97.5685 63.8531 97.3919 63.393 97.3919 62.8572C97.3919 61.086 97.9592 58.9492 99.0875 56.4531C99.346 55.8984 100.399 53.9128 102.258 50.4965L106.103 43.4494L109.519 43.2981Z" fill="#191919"/>
<path d="M35.0713 26.2724C39.2882 25.5223 43.4294 24.6966 47.5959 24.0725C53.8677 23.1397 59.7108 20.839 65.6485 18.7841C69.0081 17.6243 72.5191 16.7229 76.0363 16.2754C78.5324 15.9539 81.1672 16.4771 83.7074 16.8301C85.3148 17.057 85.34 17.3154 85.0059 19.1182C79.5851 17.5928 74.1895 17.8638 68.8254 19.4648C74.2462 18.5698 79.6481 18.0277 84.9492 20.2528C84.2243 23.7007 82.4972 26.3985 79.8876 28.5164C76.2002 31.5041 71.977 33.3195 67.2432 33.5779C61.148 33.912 56.6474 31.0125 53.3823 26.0392C52.9033 25.308 52.4179 25.037 51.5733 25.0748C48.2325 25.2135 45.0494 25.9446 41.9734 27.2557C40.5929 27.8482 39.1621 28.384 37.6997 28.7055C35.8844 29.1278 35.0839 28.321 35.0713 26.2724Z" fill="#F54748"/>
<path d="M57.4732 20.3155C56.9311 18.601 56.5088 16.2184 57.7127 14.34C58.1476 13.6592 58.5132 13.4827 58.9103 12.9091C59.6856 11.7745 60.1521 9.68814 58.4313 5.50276C59.0238 5.92508 59.8054 6.60583 60.3411 7.65218C60.9526 8.8435 60.8706 9.76377 61.0597 10.7597C61.2803 11.9384 61.9422 13.5395 63.9277 15.2981C63.7197 14.6551 63.4991 13.7601 63.4487 12.6696C63.4045 11.598 63.5369 10.6904 63.6882 10.0411C63.9151 10.703 64.2807 11.5476 64.8858 12.4301C65.2892 13.0163 65.7052 13.489 66.0834 13.8609C65.5603 13.0919 64.8669 11.8817 64.4131 10.2743C64.0664 9.04521 63.6882 6.99033 64.1736 4.53835C64.5896 2.43936 65.472 0.895067 66.0834 0C66.0393 0.769001 66.0582 2.23766 66.802 3.81979C67.9429 6.25916 70.023 7.33702 70.6218 7.63958C72.122 8.39597 72.4309 7.98626 75.3997 8.8372C77.7193 9.49905 78.8791 9.83312 79.9381 10.7471C80.5432 11.264 81.9488 12.6885 82.327 15.7645C80.9655 15.5376 79.125 15.3359 76.9503 15.4052C74.5173 15.4809 72.6893 15.8591 71.4538 16.1238C69.5629 16.5272 68.0438 17.0315 65.0056 18.0337C63.2407 18.6199 61.98 19.08 59.7486 19.7041C58.7968 19.9814 58.0089 20.1831 57.4732 20.3155Z" fill="#FDC55E"/>
<path d="M72.393 15.6889C72.4245 15.7897 73.8113 15.235 75.7401 14.9703C78.0345 14.6551 80.02 14.8947 81.4761 15.2098C81.4887 14.1635 81.1924 13.4386 80.997 13.0604C80.4865 12.0582 79.6985 11.5035 78.8476 10.911C78.1857 10.4445 77.587 10.142 77.1772 9.95288C77.7319 10.3878 78.419 11.0118 79.0871 11.8628C79.7805 12.7452 80.228 13.5899 80.518 14.2517C79.5536 14.1004 78.129 13.9807 76.4587 14.2517C74.1958 14.6299 72.3552 15.5754 72.393 15.6889Z" fill="white"/>
<path d="M110.282 70.6229C111.486 68.8391 116.749 68.9337 120.216 69.564C117.09 67.0868 113.428 65.8451 109.217 65.8451C108.19 65.8451 106.57 66.0657 104.351 66.5132C100.121 67.3641 97.0705 68.0512 95.1922 68.5618C92.8221 69.2047 91.1896 69.5262 90.2945 69.5262C89.6138 69.5262 88.9267 69.4505 88.246 69.2992C86.9034 69.003 85.6742 67.963 84.5648 66.1917C84.0291 65.3408 83.7643 63.9289 83.7643 61.9622C83.7643 60.8718 84.0228 59.2644 84.5333 57.1276C85.088 54.8206 85.6301 53.2952 86.1659 52.5451C88.7061 51.587 91.0131 50.4083 93.0806 49.0216C96.0494 47.0361 97.5307 45.1451 97.5307 43.3549C97.5307 42.6048 97.2786 42.0186 96.7806 41.5963C96.2763 41.1677 95.646 40.9534 94.877 40.9534C92.8032 40.9534 90.2756 42.567 87.2879 45.788C85.3023 47.9437 83.3798 50.4839 81.5204 53.4087L78.7658 54.2092C80.0013 49.8977 81.7851 46.3112 84.1173 43.4495C84.3064 43.2162 84.4388 43.0461 84.5018 42.9389L84.4073 42.7498L84.2182 42.6553C83.2601 42.8255 80.8585 45.3657 77.0135 50.2759C75.7087 51.94 74.5678 53.6923 73.5845 55.5266C73.3954 55.6148 73.1685 55.6526 72.9101 55.6526C72.5067 55.6526 71.4982 55.4068 69.8971 54.9151C69.021 54.2092 68.586 53.3141 68.586 52.2236C68.586 47.6096 72.3365 44.5715 79.8248 43.0965C77.4358 42.8822 76.1185 42.775 75.8852 42.775C73.7043 42.775 71.6872 43.7394 69.8341 45.6745C67.9746 47.6097 67.048 49.6708 67.048 51.8707C67.048 53.4528 67.6783 54.6378 68.939 55.4257C70.0043 56.1065 71.3721 56.4531 73.0361 56.4531C72.0087 58.8673 71.0632 60.6196 70.187 61.7038C68.7562 63.5002 67.0669 64.3953 65.1255 64.3953C64.4006 64.3953 63.6632 64.244 62.9131 63.9478C61.9739 63.5822 61.5011 63.0968 61.5011 62.4728C61.5011 62.0442 61.8667 61.6912 62.5916 61.4138C62.6357 61.3949 63.1904 61.231 64.2557 60.9348C64.8986 60.6385 65.2137 60.1532 65.2137 59.4913C65.2137 58.8484 65.0121 58.3378 64.6023 57.9533C64.1989 57.5688 63.6758 57.3734 63.0328 57.3734C62.0936 57.3734 61.3246 57.7075 60.7258 58.382C60.127 59.0564 59.8307 59.8695 59.8307 60.8339C59.8307 62.3089 60.5241 63.4183 61.9108 64.1621C63.0202 64.7609 64.3754 65.0571 65.9765 65.0571C69.0083 65.0571 71.6368 64.0675 73.8556 62.082C75.8411 60.336 77.3791 57.9344 78.4696 54.8836C79.56 54.6 80.411 54.3542 81.0287 54.1399C79.8941 57.0457 79.3331 59.6993 79.3331 62.1135C79.3331 64.4583 79.7807 66.1665 80.6757 67.2381C82.5541 69.4757 84.2119 70.7301 85.6427 70.9822C86.8151 71.1965 87.6787 71.3037 88.2397 71.3037C89.6705 71.3037 91.0257 71.1209 92.3053 70.7616L96.2448 69.6396C97.8018 69.1921 99.3965 68.8076 101.016 68.4861C101.974 68.297 102.863 68.1962 103.676 68.1962C106.046 68.1962 107.906 68.7067 109.249 69.7342C109.602 70.0178 109.948 70.3141 110.282 70.6229ZM89.8407 45.6304C91.5678 43.0019 93.1373 41.6909 94.5492 41.6909C95.4443 41.6909 95.8918 42.1636 95.8918 43.1028C95.8918 44.6597 94.7194 46.3679 92.3683 48.2274C90.553 49.6582 88.662 50.7802 86.7017 51.5933C87.7039 49.2611 88.7502 47.2756 89.8407 45.6304Z" fill="#191919"/>
<path d="M120.925 70.7337C121.046 71.4119 121.088 72.3349 120.521 72.9875C120.316 73.2221 120.164 73.2731 119.981 73.472C119.619 73.8646 119.33 74.6295 119.781 76.3071C119.572 76.1184 119.304 75.8176 119.147 75.3943C118.968 74.915 119.052 74.5632 119.031 74.1807C119.005 73.7218 118.832 73.0793 118.15 72.3145C118.197 72.5694 118.239 72.9213 118.197 73.3343C118.161 73.7422 118.061 74.0788 117.966 74.3184C117.914 74.0584 117.814 73.7167 117.625 73.3496C117.5 73.1048 117.363 72.906 117.232 72.7428C117.395 73.064 117.604 73.5535 117.699 74.1858C117.772 74.6703 117.809 75.4708 117.494 76.3734C117.222 77.1484 116.797 77.689 116.513 78C116.571 77.7093 116.639 77.1535 116.435 76.5161C116.12 75.532 115.365 75.017 115.144 74.8742C114.599 74.5122 114.457 74.6499 113.345 74.1756C112.474 73.8085 112.039 73.6198 111.672 73.2221C111.462 72.9926 110.99 72.3807 111 71.1977C112.222 69.4232 118.517 69.9331 120.925 70.7337Z" fill="#F54748"/>
<path d="M112.778 44.7034C113.823 44.7034 114.669 43.8567 114.669 42.8124C114.669 41.768 113.823 40.9214 112.778 40.9214C111.734 40.9214 110.887 41.768 110.887 42.8124C110.887 43.8567 111.734 44.7034 112.778 44.7034Z" stroke="#191919" stroke-width="0.25" stroke-miterlimit="10"/>
<path d="M111.984 41.7282H112.287V43.9029H111.984V41.7282ZM112.116 42.6926H112.86C112.917 42.6926 112.967 42.68 113.012 42.6485C113.056 42.6233 113.093 42.5792 113.112 42.5287C113.138 42.4783 113.15 42.4153 113.15 42.3523C113.15 42.2829 113.138 42.2262 113.112 42.1758C113.087 42.1253 113.056 42.0875 113.012 42.056C112.967 42.0308 112.917 42.0119 112.854 42.0119H112.11V41.7219H112.841C112.967 41.7219 113.075 41.7471 113.175 41.7976C113.276 41.848 113.346 41.9236 113.396 42.0182C113.446 42.1127 113.472 42.2262 113.472 42.3459C113.472 42.472 113.446 42.5792 113.39 42.6737C113.333 42.7683 113.264 42.8439 113.169 42.8943C113.075 42.9448 112.961 42.97 112.841 42.97H112.11V42.6926H112.116ZM112.709 42.9133L113.012 42.8439L113.566 43.9029H113.207L112.709 42.9133Z" fill="#191919"/>
</svg>
