<svg width="101" height="21" viewBox="0 0 101 21" fill="none" xmlns="http://www.w3.org/2000/svg">
<path d="M10.2 12.0651L10.766 8.37707H7.227V5.98307C7.20214 5.70724 7.23973 5.42934 7.33698 5.17003C7.43423 4.91071 7.58864 4.67663 7.78875 4.48516C7.98886 4.2937 8.22953 4.14976 8.49289 4.06406C8.75625 3.97835 9.03553 3.95306 9.31 3.99007H10.919V0.850074C9.97303 0.697346 9.01713 0.614123 8.059 0.601074C5.144 0.601074 3.239 2.36807 3.239 5.56507V8.37607H0V12.0641H3.24V20.9811H7.227V12.0651H10.2Z" fill="#FDC55E"/>
<path d="M44.923 4.99105C44.0183 4.99105 43.134 5.2593 42.3818 5.7619C41.6296 6.2645 41.0434 6.97886 40.6972 7.81465C40.351 8.65044 40.2604 9.57012 40.4369 10.4574C40.6134 11.3447 41.049 12.1597 41.6887 12.7993C42.3284 13.439 43.1434 13.8747 44.0307 14.0512C44.9179 14.2276 45.8376 14.1371 46.6734 13.7909C47.5092 13.4447 48.2235 12.8584 48.7261 12.1062C49.2287 11.354 49.497 10.4697 49.497 9.56504C49.4981 8.96408 49.3805 8.36882 49.151 7.8134C48.9215 7.25798 48.5846 6.75333 48.1597 6.32839C47.7347 5.90344 47.2301 5.56656 46.6746 5.33707C46.1192 5.10758 45.524 4.98999 44.923 4.99105ZM44.923 12.538C44.335 12.538 43.7602 12.3637 43.2713 12.037C42.7824 11.7103 42.4013 11.246 42.1763 10.7028C41.9513 10.1595 41.8924 9.56175 42.0071 8.98504C42.1218 8.40834 42.405 7.8786 42.8208 7.46282C43.2366 7.04704 43.7663 6.76388 44.343 6.64917C44.9197 6.53445 45.5175 6.59333 46.0607 6.81835C46.604 7.04337 47.0683 7.42443 47.395 7.91333C47.7216 8.40224 47.896 8.97704 47.896 9.56504C47.8944 10.353 47.5807 11.1083 47.0235 11.6655C46.4663 12.2227 45.711 12.5365 44.923 12.538ZM50.75 4.80405C50.75 5.01508 50.6874 5.22137 50.5702 5.39684C50.4529 5.5723 50.2863 5.70907 50.0913 5.78982C49.8964 5.87058 49.6818 5.89171 49.4748 5.85054C49.2679 5.80937 49.0777 5.70775 48.9285 5.55853C48.7793 5.4093 48.6777 5.21918 48.6365 5.01221C48.5953 4.80523 48.6165 4.59069 48.6972 4.39572C48.778 4.20075 48.9147 4.03411 49.0902 3.91686C49.2657 3.79962 49.472 3.73704 49.683 3.73704C49.8233 3.73652 49.9623 3.76375 50.0921 3.81717C50.2218 3.87059 50.3397 3.94915 50.439 4.04832C50.5383 4.1475 50.6169 4.26532 50.6705 4.39502C50.724 4.52472 50.7514 4.66373 50.751 4.80405H50.75ZM53.775 5.88605C53.8045 4.49911 53.2868 3.1563 52.334 2.14804C51.3237 1.19845 49.9823 0.681328 48.596 0.707043C47.123 0.623043 42.709 0.623043 41.236 0.707043C39.8501 0.679395 38.5085 1.19517 37.498 2.14405C36.5493 3.15448 36.0342 4.49634 36.063 5.88204C35.979 7.35504 35.979 11.769 36.063 13.242C36.0335 14.629 36.5512 15.9718 37.504 16.98C38.5146 17.9284 39.8553 18.445 41.241 18.42C42.714 18.504 47.128 18.504 48.601 18.42C49.9879 18.4495 51.3307 17.9319 52.339 16.979C53.2865 15.9682 53.8018 14.6273 53.775 13.242C53.863 11.769 53.863 7.35905 53.775 5.88605ZM51.875 14.82C51.7237 15.205 51.4946 15.5546 51.2021 15.8471C50.9096 16.1396 50.56 16.3687 50.175 16.52C49.001 16.986 46.214 16.878 44.917 16.878C43.62 16.878 40.829 16.978 39.659 16.52C39.274 16.3687 38.9244 16.1396 38.6319 15.8471C38.3394 15.5546 38.1103 15.205 37.959 14.82C37.493 13.646 37.601 10.859 37.601 9.56204C37.601 8.26504 37.501 5.47404 37.959 4.30404C38.1103 3.91908 38.3394 3.56944 38.6319 3.27695C38.9244 2.98445 39.274 2.75539 39.659 2.60404C40.833 2.13804 43.62 2.24604 44.917 2.24604C46.214 2.24604 49.005 2.14604 50.175 2.60404C50.56 2.75539 50.9096 2.98445 51.2021 3.27695C51.4946 3.56944 51.7237 3.91908 51.875 4.30404C52.341 5.47804 52.233 8.26504 52.233 9.56204C52.233 10.859 52.343 13.652 51.875 14.82Z" fill="#FDC55E"/>
<path d="M98.285 5.4132C98.298 5.5942 98.298 5.7752 98.298 5.9562C98.3092 7.51994 98.0094 9.07031 97.4161 10.5172C96.8229 11.9641 95.9479 13.2786 94.8422 14.3844C93.7364 15.4901 92.4219 16.3651 90.975 16.9583C89.5281 17.5516 87.9777 17.8514 86.414 17.8402C84.14 17.8463 81.9127 17.1952 80 15.9652C80.335 16.0022 80.6719 16.0196 81.009 16.0172C82.8891 16.0219 84.7161 15.3931 86.195 14.2322C85.3231 14.2161 84.4779 13.9279 83.7778 13.4079C83.0777 12.888 82.5575 12.1623 82.29 11.3322C82.551 11.3736 82.8147 11.3954 83.079 11.3972C83.4502 11.3963 83.8198 11.3486 84.179 11.2552C83.2331 11.0639 82.3826 10.5509 81.772 9.8035C81.1615 9.05607 80.8286 8.12028 80.83 7.1552V7.1062C81.4088 7.42912 82.0557 7.61072 82.718 7.6362C81.8316 7.04493 81.2042 6.13767 80.9639 5.09958C80.7236 4.06149 80.8885 2.97083 81.425 2.0502C82.4741 3.3415 83.7829 4.3979 85.2665 5.1509C86.7501 5.9039 88.3754 6.33669 90.037 6.4212C89.9711 6.10644 89.9376 5.78577 89.937 5.4642C89.9391 4.62768 90.192 3.81101 90.6631 3.11977C91.1342 2.42854 91.8019 1.89451 92.5797 1.58673C93.3575 1.27896 94.2098 1.21159 95.0263 1.39333C95.8429 1.57507 96.5861 1.99756 97.16 2.6062C98.0954 2.42595 98.9924 2.08453 99.811 1.5972C99.4992 2.56169 98.8464 3.37943 97.975 3.8972C98.8044 3.80263 99.6151 3.58455 100.38 3.2502C99.8081 4.08292 99.0999 4.81317 98.285 5.4102V5.4132Z" fill="#FDC55E"/>
</svg>
