<svg width="24" height="22" viewBox="0 0 24 22" fill="none" xmlns="http://www.w3.org/2000/svg">
<path d="M11.0489 0.926744C11.3483 0.00543332 12.6517 0.00543475 12.9511 0.926745L14.9187 6.98247C15.0526 7.3945 15.4365 7.67346 15.8697 7.67346H22.2371C23.2058 7.67346 23.6086 8.91307 22.8249 9.48247L17.6736 13.2251C17.3231 13.4798 17.1764 13.9311 17.3103 14.3432L19.2779 20.3989C19.5773 21.3202 18.5228 22.0863 17.7391 21.5169L12.5878 17.7743C12.2373 17.5196 11.7627 17.5196 11.4122 17.7743L6.2609 21.5169C5.47719 22.0863 4.42271 21.3202 4.72206 20.3989L6.68969 14.3432C6.82356 13.9311 6.6769 13.4798 6.32642 13.2251L1.17511 9.48247C0.391392 8.91307 0.794168 7.67346 1.76289 7.67346H8.13026C8.56349 7.67346 8.94744 7.3945 9.08132 6.98247L11.0489 0.926744Z" fill="#FFB800"/>
</svg>
