<svg width="119" height="317" viewBox="0 0 119 317" fill="none" xmlns="http://www.w3.org/2000/svg">
<path d="M59 223L59.6306 222.224L59 223ZM4.99459 315.089C5.48242 314.83 5.66797 314.224 5.40904 313.737C5.15011 313.249 4.54474 313.063 4.05692 313.322L4.99459 315.089ZM10.9355 309.423C10.462 309.707 10.3084 310.321 10.5926 310.795C10.8768 311.268 11.4911 311.422 11.9646 311.138L10.9355 309.423ZM18.7422 306.872C19.2035 306.568 19.3313 305.948 19.0277 305.487C18.7241 305.025 18.1039 304.897 17.6426 305.201L18.7422 306.872ZM24.182 300.715C23.7326 301.036 23.6284 301.661 23.9494 302.11C24.2704 302.559 24.8949 302.664 25.3443 302.343L24.182 300.715ZM31.7716 297.567C32.2085 297.229 32.2889 296.601 31.9511 296.164C31.6133 295.727 30.9853 295.647 30.5483 295.985L31.7716 297.567ZM36.718 291.017C36.295 291.372 36.2399 292.003 36.595 292.426C36.9501 292.849 37.5808 292.904 38.0038 292.549L36.718 291.017ZM44.024 287.266C44.4306 286.892 44.4574 286.259 44.0837 285.853C43.71 285.446 43.0774 285.419 42.6707 285.793L44.024 287.266ZM48.3588 280.294C47.9722 280.688 47.9785 281.321 48.373 281.708C48.7674 282.094 49.4005 282.088 49.7871 281.693L48.3588 280.294ZM55.2231 275.797C55.5838 275.378 55.5373 274.747 55.1191 274.386C54.701 274.025 54.0695 274.072 53.7087 274.49L55.2231 275.797ZM58.6219 268.328C58.2961 268.774 58.3936 269.4 58.8396 269.726C59.2856 270.052 59.9112 269.954 60.237 269.508L58.6219 268.328ZM64.6555 262.755C64.931 262.276 64.7663 261.664 64.2876 261.389C63.8089 261.114 63.1976 261.278 62.9221 261.757L64.6555 262.755ZM66.3173 254.737C66.118 255.252 66.3739 255.831 66.889 256.03C67.4041 256.229 67.9832 255.974 68.1825 255.458L66.3173 254.737ZM70.3195 247.571C70.4002 247.025 70.0226 246.517 69.4763 246.436C68.9299 246.355 68.4216 246.733 68.341 247.279L70.3195 247.571ZM68.34 239.657C68.428 240.202 68.9413 240.573 69.4865 240.485C70.0317 240.397 70.4025 239.884 70.3145 239.338L68.34 239.657ZM67.6266 231.525C67.3619 231.04 66.7543 230.862 66.2696 231.126C65.7849 231.391 65.6066 231.999 65.8713 232.483L67.6266 231.525ZM61.2502 226.377C61.6389 226.77 62.272 226.773 62.6644 226.384C63.0567 225.995 63.0597 225.362 62.671 224.97L61.2502 226.377ZM56.1548 219.863C55.6716 219.595 55.0631 219.77 54.7957 220.253C54.5283 220.737 54.7032 221.345 55.1865 221.612L56.1548 219.863ZM47.9687 219.434C48.5197 219.471 48.997 219.055 49.0348 218.504C49.0726 217.953 48.6565 217.476 48.1056 217.438L47.9687 219.434ZM39.8128 218.665C39.2932 218.853 39.0239 219.426 39.2112 219.945C39.3985 220.465 39.9715 220.734 40.491 220.547L39.8128 218.665ZM33.7545 224.273C34.1955 223.94 34.2837 223.313 33.9514 222.872C33.619 222.431 32.992 222.343 32.5509 222.675L33.7545 224.273ZM26.573 228.349C26.2142 228.769 26.2635 229.4 26.6833 229.759C27.1031 230.118 27.7344 230.068 28.0932 229.649L26.573 228.349ZM23.5551 236.055C23.834 235.578 23.6736 234.966 23.1969 234.687C22.7202 234.408 22.1077 234.569 21.8288 235.045L23.5551 236.055ZM18.2938 242.436C18.0976 242.952 18.357 243.53 18.8733 243.726C19.3896 243.922 19.9671 243.663 20.1633 243.147L18.2938 242.436ZM18.013 250.696C18.1167 250.154 17.761 249.63 17.2185 249.526C16.6761 249.423 16.1523 249.778 16.0486 250.321L18.013 250.696ZM15.2967 258.508C15.3029 259.061 15.7556 259.503 16.3079 259.497C16.8601 259.491 17.3028 259.038 17.2965 258.486L15.2967 258.508ZM18.2858 266.198C18.1483 265.663 17.6033 265.341 17.0684 265.478C16.5335 265.616 16.2112 266.161 16.3486 266.696L18.2858 266.198ZM19.4845 274.358C19.7637 274.835 20.3763 274.995 20.8528 274.715C21.3294 274.436 21.4893 273.824 21.2101 273.347L19.4845 274.358ZM26.0226 279.373C25.6208 278.995 24.9879 279.013 24.609 279.415C24.2301 279.817 24.2486 280.45 24.6504 280.828L26.0226 279.373ZM31.3363 285.683C31.8187 285.952 32.4278 285.779 32.6967 285.297C32.9655 284.814 32.7925 284.205 32.3101 283.936L31.3363 285.683ZM39.4857 287.037C38.9609 286.865 38.3961 287.151 38.2242 287.676C38.0523 288.201 38.3384 288.766 38.8632 288.938L39.4857 287.037ZM46.7943 290.888C47.3384 290.983 47.8563 290.619 47.9512 290.075C48.0461 289.531 47.682 289.013 47.1379 288.918L46.7943 290.888ZM54.9695 289.832C54.4184 289.796 53.9427 290.214 53.907 290.765C53.8713 291.316 54.2892 291.792 54.8403 291.828L54.9695 289.832ZM63.0495 291.908C63.6006 291.871 64.0179 291.395 63.9817 290.844C63.9454 290.293 63.4693 289.876 62.9182 289.912L63.0495 291.908ZM70.4852 288.724C69.9499 288.86 69.626 289.404 69.7618 289.94C69.8977 290.475 70.4417 290.799 70.9771 290.663L70.4852 288.724ZM78.5438 287.951C79.0435 287.716 79.258 287.12 79.0229 286.62C78.7877 286.121 78.192 285.906 77.6923 286.141L78.5438 287.951ZM84.3056 282.244C83.8569 282.566 83.7542 283.19 84.0761 283.639C84.3981 284.088 85.0229 284.19 85.4716 283.868L84.3056 282.244ZM91.5725 278.678C91.9638 278.288 91.9651 277.655 91.5754 277.264C91.1857 276.872 90.5525 276.871 90.1612 277.261L91.5725 278.678ZM95.2374 271.445C94.9023 271.884 94.9865 272.512 95.4255 272.847C95.8645 273.182 96.492 273.098 96.8271 272.659L95.2374 271.445ZM101.292 266.051C101.575 265.578 101.422 264.963 100.948 264.68C100.474 264.396 99.8601 264.549 99.5761 265.023L101.292 266.051ZM103.25 258.171C103.012 258.669 103.222 259.266 103.72 259.505C104.217 259.744 104.815 259.534 105.054 259.036L103.25 258.171ZM108.205 251.737C108.404 251.222 108.149 250.643 107.634 250.443C107.119 250.244 106.54 250.499 106.34 251.014L108.205 251.737ZM108.918 243.637C108.753 244.164 109.046 244.725 109.573 244.891C110.099 245.056 110.661 244.763 110.826 244.236L108.918 243.637ZM112.986 236.588C113.121 236.053 112.797 235.509 112.261 235.374C111.726 235.238 111.182 235.563 111.047 236.098L112.986 236.588ZM112.772 228.465C112.664 229.007 113.014 229.534 113.556 229.643C114.097 229.751 114.624 229.401 114.733 228.859L112.772 228.465ZM116.113 221.092C116.198 220.546 115.824 220.035 115.278 219.95C114.733 219.865 114.221 220.239 114.137 220.785L116.113 221.092ZM115.184 213.032C115.12 213.581 115.514 214.077 116.063 214.14C116.611 214.203 117.107 213.81 117.171 213.261L115.184 213.032ZM117.934 205.379C117.977 204.828 117.566 204.346 117.016 204.303C116.465 204.26 115.983 204.671 115.94 205.221L117.934 205.379ZM116.427 197.365C116.402 197.917 116.829 198.384 117.38 198.409C117.932 198.434 118.4 198.007 118.425 197.456L116.427 197.365ZM118.66 189.59C118.668 189.038 118.227 188.583 117.675 188.575C117.123 188.567 116.668 189.008 116.66 189.561L118.66 189.59ZM116.661 181.723C116.669 182.275 117.123 182.716 117.675 182.709C118.227 182.701 118.668 182.247 118.66 181.694L116.661 181.723ZM118.437 173.777C118.414 173.225 117.948 172.797 117.396 172.82C116.844 172.843 116.416 173.309 116.439 173.861L118.437 173.777ZM116.008 166.035C116.045 166.586 116.522 167.002 117.073 166.965C117.624 166.927 118.041 166.45 118.003 165.899L116.008 166.035ZM117.367 158.038C117.315 157.488 116.828 157.084 116.278 157.135C115.728 157.186 115.324 157.674 115.375 158.224L117.367 158.038ZM114.547 150.404C114.611 150.953 115.109 151.345 115.657 151.28C116.206 151.215 116.598 150.718 116.533 150.169L114.547 150.404ZM115.512 142.346C115.434 141.799 114.928 141.419 114.381 141.497C113.834 141.575 113.454 142.081 113.532 142.628L115.512 142.346ZM112.335 134.877C112.425 135.422 112.941 135.79 113.485 135.7C114.03 135.609 114.398 135.094 114.308 134.549L112.335 134.877ZM112.919 126.762C112.816 126.22 112.293 125.863 111.75 125.967C111.208 126.07 110.851 126.593 110.955 127.136L112.919 126.762ZM109.403 119.452C109.518 119.992 110.05 120.336 110.59 120.221C111.13 120.105 111.474 119.574 111.358 119.034L109.403 119.452ZM109.62 111.333C109.493 110.796 108.954 110.464 108.416 110.591C107.879 110.719 107.547 111.258 107.674 111.795L109.62 111.333ZM105.771 104.17C105.911 104.704 106.457 105.024 106.992 104.884C107.526 104.745 107.846 104.198 107.706 103.664L105.771 104.17ZM105.623 96.0588C105.471 95.5278 104.918 95.2205 104.387 95.3724C103.856 95.5243 103.549 96.0779 103.7 96.6089L105.623 96.0588ZM101.454 89.0844C101.618 89.6117 102.179 89.9063 102.706 89.7423C103.234 89.5782 103.528 89.0178 103.364 88.4904L101.454 89.0844ZM100.933 80.9791C100.756 80.4557 100.189 80.1742 99.6658 80.3503C99.1423 80.5265 98.8608 81.0937 99.037 81.6171L100.933 80.9791ZM96.4467 74.2097C96.6351 74.7288 97.2087 74.9969 97.7279 74.8085C98.247 74.6201 98.5151 74.0465 98.3267 73.5273L96.4467 74.2097ZM95.5438 66.1364C95.343 65.622 94.7631 65.3677 94.2486 65.5685C93.7341 65.7693 93.4799 66.3491 93.6807 66.8636L95.5438 66.1364ZM90.7389 59.5894C90.9522 60.0988 91.5381 60.3389 92.0476 60.1255C92.557 59.9122 92.797 59.3263 92.5837 58.8169L90.7389 59.5894ZM89.4424 51.5706C89.2164 51.0667 88.6246 50.8414 88.1207 51.0674C87.6168 51.2935 87.3915 51.8852 87.6176 52.3891L89.4424 51.5706ZM84.3162 45.2746C84.5552 45.7725 85.1525 45.9825 85.6504 45.7435C86.1484 45.5046 86.3583 44.9073 86.1194 44.4094L84.3162 45.2746ZM82.607 37.3308C82.3549 36.8394 81.7523 36.6454 81.2608 36.8975C80.7694 37.1496 80.5754 37.7523 80.8275 38.2437L82.607 37.3308ZM77.1535 31.3155C77.419 31.7998 78.0268 31.9772 78.5111 31.7118C78.9954 31.4464 79.1728 30.8386 78.9073 30.3542L77.1535 31.3155ZM75.013 23.4811C74.7339 23.0045 74.1213 22.8444 73.6448 23.1235C73.1682 23.4026 73.0081 24.0152 73.2872 24.4917L75.013 23.4811ZM69.2238 17.7806C69.5168 18.2488 70.1339 18.3907 70.602 18.0977C71.0702 17.8047 71.2121 17.1876 70.9191 16.7195L69.2238 17.7806ZM66.6295 10.0925C66.3222 9.63356 65.7011 9.51056 65.2422 9.81777C64.7832 10.125 64.6602 10.7461 64.9674 11.205L66.6295 10.0925ZM60.5002 4.75497C60.8219 5.20388 61.4466 5.307 61.8955 4.98529C62.3444 4.66358 62.4476 4.03887 62.1259 3.58995L60.5002 4.75497ZM1.43666 316.9C2.56896 316.35 3.75778 315.745 4.99459 315.089L4.05692 313.322C2.83935 313.968 1.67203 314.562 0.563339 315.1L1.43666 316.9ZM11.9646 311.138C14.1501 309.826 16.4204 308.4 18.7422 306.872L17.6426 305.201C15.3433 306.714 13.0965 308.126 10.9355 309.423L11.9646 311.138ZM25.3443 302.343C27.478 300.819 29.6283 299.224 31.7716 297.567L30.5483 295.985C28.4257 297.626 26.2957 299.206 24.182 300.715L25.3443 302.343ZM38.0038 292.549C40.0459 290.834 42.0599 289.071 44.024 287.266L42.6707 285.793C40.7301 287.576 38.7387 289.321 36.718 291.017L38.0038 292.549ZM49.7871 281.693C51.6825 279.76 53.5025 277.791 55.2231 275.797L53.7087 274.49C52.0184 276.449 50.2274 278.387 48.3588 280.294L49.7871 281.693ZM60.237 269.508C61.8686 267.274 63.3524 265.019 64.6555 262.755L62.9221 261.757C61.6596 263.951 60.2165 266.145 58.6219 268.328L60.237 269.508ZM68.1825 255.458C69.2023 252.823 69.9334 250.187 70.3195 247.571L68.341 247.279C67.9797 249.727 67.2917 252.219 66.3173 254.737L68.1825 255.458ZM70.3145 239.338C69.883 236.663 69.0053 234.049 67.6266 231.525L65.8713 232.483C67.1406 234.807 67.9445 237.205 68.34 239.657L70.3145 239.338ZM62.671 224.97C61.7448 224.035 60.7323 223.119 59.6306 222.224L58.3694 223.776C59.4185 224.629 60.3774 225.496 61.2502 226.377L62.671 224.97ZM59.6306 222.224C58.4915 221.298 57.3312 220.513 56.1548 219.863L55.1865 221.612C56.254 222.203 57.3169 222.921 58.3694 223.776L59.6306 222.224ZM48.1056 217.438C45.2898 217.245 42.4995 217.697 39.8128 218.665L40.491 220.547C42.9473 219.661 45.4602 219.262 47.9687 219.434L48.1056 217.438ZM32.5509 222.675C30.4197 224.281 28.4119 226.198 26.573 228.349L28.0932 229.649C29.8475 227.597 31.7507 225.782 33.7545 224.273L32.5509 222.675ZM21.8288 235.045C20.4613 237.383 19.2706 239.866 18.2938 242.436L20.1633 243.147C21.1006 240.68 22.2433 238.298 23.5551 236.055L21.8288 235.045ZM16.0486 250.321C15.5302 253.033 15.2659 255.782 15.2967 258.508L17.2965 258.486C17.2674 255.903 17.5177 253.288 18.013 250.696L16.0486 250.321ZM16.3486 266.696C17.0324 269.357 18.0636 271.933 19.4845 274.358L21.2101 273.347C19.8888 271.092 18.9261 268.691 18.2858 266.198L16.3486 266.696ZM24.6504 280.828C26.5564 282.626 28.7777 284.257 31.3363 285.683L32.3101 283.936C29.8889 282.587 27.8028 281.052 26.0226 279.373L24.6504 280.828ZM38.8632 288.938C41.2939 289.734 43.9342 290.39 46.7943 290.888L47.1379 288.918C44.3646 288.434 41.8181 287.801 39.4857 287.037L38.8632 288.938ZM54.8403 291.828C56.1811 291.915 57.5609 291.972 58.9806 292L59.0194 290C57.6287 289.973 56.279 289.917 54.9695 289.832L54.8403 291.828ZM58.9806 292C60.3595 292.027 61.7158 291.995 63.0495 291.908L62.9182 289.912C61.6422 289.996 60.3426 290.026 59.0194 290L58.9806 292ZM70.9771 290.663C73.6062 289.996 76.1287 289.087 78.5438 287.951L77.6923 286.141C75.3917 287.224 72.9895 288.089 70.4852 288.724L70.9771 290.663ZM85.4716 283.868C87.6099 282.334 89.6435 280.599 91.5725 278.678L90.1612 277.261C88.3037 279.111 86.3516 280.775 84.3056 282.244L85.4716 283.868ZM96.8271 272.659C98.4013 270.596 99.8893 268.391 101.292 266.051L99.5761 265.023C98.2096 267.303 96.7631 269.446 95.2374 271.445L96.8271 272.659ZM105.054 259.036C106.173 256.703 107.224 254.267 108.205 251.737L106.34 251.014C105.376 253.499 104.346 255.887 103.25 258.171L105.054 259.036ZM110.826 244.236C111.604 241.759 112.324 239.208 112.986 236.588L111.047 236.098C110.394 238.683 109.684 241.198 108.918 243.637L110.826 244.236ZM114.733 228.859C115.242 226.323 115.702 223.733 116.113 221.092L114.137 220.785C113.73 223.398 113.275 225.959 112.772 228.465L114.733 228.859ZM117.171 213.261C117.469 210.674 117.723 208.045 117.934 205.379L115.94 205.221C115.731 207.865 115.479 210.469 115.184 213.032L117.171 213.261ZM118.425 197.456C118.543 194.864 118.621 192.241 118.66 189.59L116.66 189.561C116.622 192.192 116.544 194.794 116.427 197.365L118.425 197.456ZM118.66 181.694C118.623 179.078 118.549 176.438 118.437 173.777L116.439 173.861C116.55 176.504 116.624 179.125 116.661 181.723L118.66 181.694ZM118.003 165.899C117.825 163.295 117.613 160.673 117.367 158.038L115.375 158.224C115.62 160.843 115.831 163.448 116.008 166.035L118.003 165.899ZM116.533 150.169C116.225 147.572 115.885 144.964 115.512 142.346L113.532 142.628C113.903 145.23 114.241 147.823 114.547 150.404L116.533 150.169ZM114.308 134.549C113.877 131.96 113.414 129.363 112.919 126.762L110.955 127.136C111.446 129.722 111.906 132.303 112.335 134.877L114.308 134.549ZM111.358 119.034C110.81 116.469 110.231 113.901 109.62 111.333L107.674 111.795C108.281 114.349 108.857 116.902 109.403 119.452L111.358 119.034ZM107.706 103.664C107.042 101.127 106.348 98.591 105.623 96.0588L103.7 96.6089C104.421 99.1265 105.111 101.648 105.771 104.17L107.706 103.664ZM103.364 88.4904C102.584 85.9807 101.773 83.4763 100.933 80.9791L99.037 81.6171C99.8726 84.0996 100.678 86.5893 101.454 89.0844L103.364 88.4904ZM98.3267 73.5273C97.4289 71.054 96.5013 68.5897 95.5438 66.1364L93.6807 66.8636C94.6323 69.3019 95.5543 71.7512 96.4467 74.2097L98.3267 73.5273ZM92.5837 58.8169C91.5666 56.3879 90.5195 53.9719 89.4424 51.5706L87.6176 52.3891C88.6877 54.7749 89.7281 57.1757 90.7389 59.5894L92.5837 58.8169ZM86.1194 44.4094C84.9788 42.0324 83.8081 39.6723 82.607 37.3308L80.8275 38.2437C82.0203 40.5691 83.1832 42.9134 84.3162 45.2746L86.1194 44.4094ZM78.9073 30.3542C77.6398 28.0417 76.3418 25.75 75.013 23.4811L73.2872 24.4917C74.6062 26.744 75.895 29.0193 77.1535 31.3155L78.9073 30.3542ZM70.9191 16.7195C69.5203 14.4848 68.0904 12.2751 66.6295 10.0925L64.9674 11.205C66.4169 13.3704 67.8356 15.5629 69.2238 17.7806L70.9191 16.7195ZM62.1259 3.58995C61.3595 2.5206 60.5853 1.45861 59.8032 0.404232L58.1968 1.59577C58.9724 2.64127 59.7402 3.69442 60.5002 4.75497L62.1259 3.58995Z" fill="#FDC55E"/>
</svg>
